Nobile.ufo
<glyph name="quotedbl" format="1">
  <advance width="829"></advance>
  <unicode hex="0022"></unicode>
  <outline>
    <contour>
      <point x="196" y="1058" type="line"></point>
      <point x="304" y="1058" type="line"></point>
      <point x="364" y="1508" type="line" smooth="yes"></point>
      <point x="367" y="1529"></point>
      <point x="364" y="1557"></point>
      <point x="364" y="1579" type="curve"></point>
      <point x="136" y="1579" type="line"></point>
      <point x="136" y="1557"></point>
      <point x="133" y="1529"></point>
      <point x="136" y="1508" type="curve" smooth="yes"></point>
    </contour>
    <contour>
      <point x="534" y="1058" type="line"></point>
      <point x="642" y="1058" type="line"></point>
      <point x="702" y="1508" type="line" smooth="yes"></point>
      <point x="705" y="1529"></point>
      <point x="702" y="1557"></point>
      <point x="702" y="1579" type="curve"></point>
      <point x="474" y="1579" type="line"></point>
      <point x="474" y="1557"></point>
      <point x="471" y="1529"></point>
      <point x="474" y="1508" type="curve" smooth="yes"></point>
    </contour>
  </outline>
</glyph>
<glyph name="percent" format="1">
  <advance width="1858"></advance>
  <unicode hex="0025"></unicode>
  <outline>
    <contour>
      <point x="456" y="788" type="curve" smooth="yes"></point>
      <point x="290" y="788"></point>
      <point x="268" y="962"></point>
      <point x="268" y="1092" type="curve" smooth="yes"></point>
      <point x="268" y="1219"></point>
      <point x="294" y="1391"></point>
      <point x="456" y="1391" type="curve" smooth="yes"></point>
      <point x="618" y="1391"></point>
      <point x="644" y="1219"></point>
      <point x="644" y="1092" type="curve" smooth="yes"></point>
      <point x="644" y="962"></point>
      <point x="622" y="788"></point>
    </contour>
    <contour>
      <point x="456" y="678" type="curve" smooth="yes"></point>
      <point x="683" y="678"></point>
      <point x="777" y="870"></point>
      <point x="777" y="1071" type="curve" smooth="yes"></point>
      <point x="777" y="1288"></point>
      <point x="707" y="1495"></point>
      <point x="456" y="1495" type="curve" smooth="yes"></point>
      <point x="205" y="1495"></point>
      <point x="135" y="1288"></point>
      <point x="135" y="1071" type="curve" smooth="yes"></point>
      <point x="135" y="871"></point>
      <point x="230" y="678"></point>
    </contour>
    <contour>
      <point x="631" y="-22" type="line"></point>
      <point x="1312" y="1430" type="line"></point>
      <point x="1183" y="1497" type="line"></point>
      <point x="501" y="37" type="line"></point>
    </contour>
    <contour>
      <point x="1367" y="89" type="curve" smooth="yes"></point>
      <point x="1201" y="89"></point>
      <point x="1179" y="263"></point>
      <point x="1179" y="393" type="curve" smooth="yes"></point>
      <point x="1179" y="520"></point>
      <point x="1205" y="692"></point>
      <point x="1367" y="692" type="curve" smooth="yes"></point>
      <point x="1529" y="692"></point>
      <point x="1555" y="520"></point>
      <point x="1555" y="393" type="curve" smooth="yes"></point>
      <point x="1555" y="263"></point>
      <point x="1533" y="89"></point>
    </contour>
    <contour>
      <point x="1367" y="-21" type="curve" smooth="yes"></point>
      <point x="1594" y="-21"></point>
      <point x="1688" y="171"></point>
      <point x="1688" y="372" type="curve" smooth="yes"></point>
      <point x="1688" y="589"></point>
      <point x="1618" y="796"></point>
      <point x="1367" y="796" type="curve" smooth="yes"></point>
      <point x="1116" y="796"></point>
      <point x="1046" y="589"></point>
      <point x="1046" y="372" type="curve" smooth="yes"></point>
      <point x="1046" y="172"></point>
      <point x="1141" y="-21"></point>
    </contour>
  </outline>
</glyph>
<glyph name="ampersand" format="1">
  <advance width="1559"></advance>
  <unicode hex="0026"></unicode>
  <outline>
    <contour>
      <point x="1432" y="-7" type="line"></point>
      <point x="1518" y="95" type="line"></point>
      <point x="1292" y="277" type="line"></point>
      <point x="1325" y="446"></point>
      <point x="1339" y="624"></point>
      <point x="1339" y="796" type="curve"></point>
      <point x="1175" y="796" type="line"></point>
      <point x="1175" y="661"></point>
      <point x="1170" y="526"></point>
      <point x="1161" y="391" type="curve"></point>
      <point x="666" y="781" type="line"></point>
      <point x="842" y="836"></point>
      <point x="1025" y="899"></point>
      <point x="1025" y="1115" type="curve" smooth="yes"></point>
      <point x="1025" y="1346"></point>
      <point x="832" y="1445"></point>
      <point x="624" y="1445" type="curve" smooth="yes"></point>
      <point x="415" y="1445"></point>
      <point x="225" y="1345"></point>
      <point x="225" y="1113" type="curve" smooth="yes"></point>
      <point x="225" y="1001"></point>
      <point x="336" y="879"></point>
      <point x="427" y="822" type="curve"></point>
      <point x="213" y="761"></point>
      <point x="93" y="621"></point>
      <point x="93" y="396" type="curve" smooth="yes"></point>
      <point x="93" y="75"></point>
      <point x="382" y="-39"></point>
      <point x="660" y="-39" type="curve" smooth="yes"></point>
      <point x="826" y="-39"></point>
      <point x="1134" y="6"></point>
      <point x="1221" y="170" type="curve"></point>
    </contour>
    <contour>
      <point x="576" y="883" type="curve"></point>
      <point x="496" y="925"></point>
      <point x="391" y="1026"></point>
      <point x="391" y="1121" type="curve" smooth="yes"></point>
      <point x="391" y="1269"></point>
      <point x="494" y="1310"></point>
      <point x="624" y="1310" type="curve" smooth="yes"></point>
      <point x="747" y="1310"></point>
      <point x="865" y="1258"></point>
      <point x="865" y="1119" type="curve" smooth="yes"></point>
      <point x="865" y="953"></point>
      <point x="708" y="922"></point>
    </contour>
    <contour>
      <point x="660" y="100" type="curve" smooth="yes"></point>
      <point x="427" y="100"></point>
      <point x="275" y="161"></point>
      <point x="275" y="418" type="curve" smooth="yes"></point>
      <point x="275" y="585"></point>
      <point x="357" y="691"></point>
      <point x="521" y="726" type="curve"></point>
      <point x="1109" y="256" type="line"></point>
      <point x="1021" y="118"></point>
      <point x="806" y="100"></point>
    </contour>
  </outline>
</glyph>
<glyph name="quotesingle" format="1">
  <advance width="597"></advance>
  <unicode hex="0027"></unicode>
  <outline>
    <contour>
      <point x="244" y="1058" type="line"></point>
      <point x="352" y="1058" type="line"></point>
      <point x="412" y="1508" type="line" smooth="yes"></point>
      <point x="415" y="1529"></point>
      <point x="412" y="1557"></point>
      <point x="412" y="1579" type="curve"></point>
      <point x="184" y="1579" type="line"></point>
      <point x="184" y="1557"></point>
      <point x="181" y="1529"></point>
      <point x="184" y="1508" type="curve" smooth="yes"></point>
    </contour>
  </outline>
</glyph>
<glyph name="comma" format="1">
  <advance width="696"></advance>
  <unicode hex="002C"></unicode>
  <outline>
    <contour>
      <point x="254" y="-253" type="line"></point>
      <point x="400" y="-211"></point>
      <point x="483" y="-110"></point>
      <point x="483" y="44" type="curve" smooth="yes"></point>
      <point x="483" y="293" type="line"></point>
      <point x="202" y="293" type="line"></point>
      <point x="202" y="0" type="line"></point>
      <point x="333" y="0" type="line"></point>
      <point x="334" y="-95"></point>
      <point x="288" y="-130"></point>
      <point x="203" y="-159" type="curve"></point>
    </contour>
  </outline>
</glyph>
<glyph name="hyphen" format="1">
  <advance width="962"></advance>
  <unicode hex="002D"></unicode>
  <outline>
    <contour>
      <point x="147" y="508" type="line"></point>
      <point x="823" y="508" type="line"></point>
      <point x="823" y="665" type="line"></point>
      <point x="147" y="665" type="line"></point>
    </contour>
  </outline>
</glyph>
<glyph name="zero" format="1">
  <advance width="1327"/>
  <unicode hex="0030"/>
  <outline>
    <contour>
      <point x="659" y="118" type="curve" smooth="yes"/>
      <point x="373" y="118"/>
      <point x="278" y="336"/>
      <point x="278" y="592" type="curve" smooth="yes"/>
      <point x="278" y="846"/>
      <point x="369" y="1049"/>
      <point x="659" y="1049" type="curve" smooth="yes"/>
      <point x="940" y="1049"/>
      <point x="1044" y="857"/>
      <point x="1044" y="606" type="curve" smooth="yes"/>
      <point x="1044" y="348"/>
      <point x="959" y="118"/>
    </contour>
    <contour>
      <point x="659" y="-21" type="curve" smooth="yes"/>
      <point x="1029" y="-21"/>
      <point x="1230" y="238"/>
      <point x="1230" y="590" type="curve" smooth="yes"/>
      <point x="1230" y="942"/>
      <point x="1031" y="1190"/>
      <point x="659" y="1190" type="curve" smooth="yes"/>
      <point x="285" y="1190"/>
      <point x="92" y="945"/>
      <point x="92" y="590" type="curve" smooth="yes"/>
      <point x="92" y="244"/>
      <point x="292" y="-21"/>
    </contour>
  </outline>
</glyph>
<glyph name="two" format="1">
  <advance width="1028"></advance>
  <unicode hex="0032"></unicode>
  <outline>
    <contour>
      <point x="92" y="0" type="line"></point>
      <point x="907" y="0" type="line"></point>
      <point x="907" y="152" type="line"></point>
      <point x="311" y="152" type="line"></point>
      <point x="388" y="214.3359375"></point>
      <point x="497" y="289.124267578"></point>
      <point x="601" y="375.075365007" type="curve" smooth="yes"></point>
      <point x="760" y="506.980514526"></point>
      <point x="907" y="665.17578125"></point>
      <point x="907" y="845" type="curve" smooth="yes"></point>
      <point x="907" y="1098"></point>
      <point x="725" y="1198"></point>
      <point x="491" y="1198" type="curve" smooth="yes"></point>
      <point x="370" y="1198"></point>
      <point x="251" y="1178"></point>
      <point x="151" y="1108" type="curve"></point>
      <point x="204" y="992" type="line"></point>
      <point x="282" y="1030"></point>
      <point x="382" y="1059"></point>
      <point x="469" y="1059" type="curve" smooth="yes"></point>
      <point x="609" y="1059"></point>
      <point x="745" y="1007"></point>
      <point x="745" y="846" type="curve" smooth="yes"></point>
      <point x="745" y="682"></point>
      <point x="618" y="577"></point>
      <point x="500" y="480" type="curve" smooth="yes"></point>
      <point x="92" y="146" type="line"></point>
    </contour>
  </outline>
</glyph>
<glyph name="three" format="1">
  <advance width="1161"></advance>
  <unicode hex="0033"></unicode>
  <outline>
    <contour>
      <point x="553" y="-198" type="curve" smooth="yes"></point>
      <point x="774" y="-198"></point>
      <point x="1021" y="-88"></point>
      <point x="1021" y="166" type="curve" smooth="yes"></point>
      <point x="1021" y="377"></point>
      <point x="891" y="504"></point>
      <point x="693" y="545" type="curve"></point>
      <point x="865" y="546"></point>
      <point x="982" y="704"></point>
      <point x="982" y="866" type="curve" smooth="yes"></point>
      <point x="982" y="1121"></point>
      <point x="752" y="1206"></point>
      <point x="534" y="1206" type="curve" smooth="yes"></point>
      <point x="420" y="1206"></point>
      <point x="286" y="1172"></point>
      <point x="181" y="1125" type="curve"></point>
      <point x="231" y="992" type="line"></point>
      <point x="324" y="1037"></point>
      <point x="424" y="1063"></point>
      <point x="528" y="1063" type="curve" smooth="yes"></point>
      <point x="683" y="1063"></point>
      <point x="817" y="1022"></point>
      <point x="817" y="843" type="curve" smooth="yes"></point>
      <point x="817" y="664"></point>
      <point x="655" y="614"></point>
      <point x="505" y="614" type="curve"></point>
      <point x="505" y="471" type="line"></point>
      <point x="677" y="452"></point>
      <point x="841" y="384"></point>
      <point x="841" y="186" type="curve" smooth="yes"></point>
      <point x="841" y="9"></point>
      <point x="721" y="-59"></point>
      <point x="557" y="-59" type="curve" smooth="yes"></point>
      <point x="443" y="-59"></point>
      <point x="303" y="-23"></point>
      <point x="202" y="31" type="curve"></point>
      <point x="148" y="-102" type="line"></point>
      <point x="273" y="-163"></point>
      <point x="413" y="-198"></point>
    </contour>
  </outline>
</glyph>
<glyph name="five" format="1">
  <advance width="1194"></advance>
  <unicode hex="0035"></unicode>
  <outline>
    <contour>
      <point x="550" y="-207" type="curve" smooth="yes"></point>
      <point x="834" y="-207"></point>
      <point x="1041" y="-49"></point>
      <point x="1041" y="248" type="curve" smooth="yes"></point>
      <point x="1041" y="518"></point>
      <point x="859" y="698"></point>
      <point x="590" y="698" type="curve" smooth="yes"></point>
      <point x="520" y="698"></point>
      <point x="401" y="679"></point>
      <point x="350" y="622" type="curve"></point>
      <point x="350" y="1018" type="line"></point>
      <point x="953" y="1018" type="line"></point>
      <point x="953" y="1169" type="line"></point>
      <point x="205" y="1169" type="line"></point>
      <point x="205" y="537" type="line"></point>
      <point x="273" y="468" type="line"></point>
      <point x="359" y="510"></point>
      <point x="474" y="562"></point>
      <point x="572" y="562" type="curve" smooth="yes"></point>
      <point x="771" y="562"></point>
      <point x="869" y="435"></point>
      <point x="869" y="244" type="curve" smooth="yes"></point>
      <point x="869" y="36"></point>
      <point x="753" y="-56"></point>
      <point x="552" y="-56" type="curve" smooth="yes"></point>
      <point x="442" y="-56"></point>
      <point x="318" y="-19"></point>
      <point x="220" y="31" type="curve"></point>
      <point x="169" y="-114" type="line"></point>
      <point x="297" y="-165"></point>
      <point x="408" y="-207"></point>
    </contour>
  </outline>
</glyph>
<glyph name="six" format="1">
  <advance width="1327"></advance>
  <unicode hex="0036"></unicode>
  <outline>
    <contour>
      <point x="653" y="-156" type="curve" smooth="yes"></point>
      <point x="948" y="-156"></point>
      <point x="1153" y="38"></point>
      <point x="1153" y="335" type="curve" smooth="yes"></point>
      <point x="1153" y="612"></point>
      <point x="962" y="793"></point>
      <point x="687" y="793" type="curve" smooth="yes"></point>
      <point x="556" y="793"></point>
      <point x="432" y="752"></point>
      <point x="346" y="649" type="curve"></point>
      <point x="398" y="931"></point>
      <point x="636" y="1117"></point>
      <point x="906" y="1174" type="curve"></point>
      <point x="863" y="1319" type="line"></point>
      <point x="425" y="1216"></point>
      <point x="148" y="878"></point>
      <point x="148" y="425" type="curve" smooth="yes"></point>
      <point x="148" y="99"></point>
      <point x="300" y="-156"></point>
    </contour>
    <contour>
      <point x="653" y="-14" type="curve" smooth="yes"></point>
      <point x="403" y="-14"></point>
      <point x="326" y="184"></point>
      <point x="326" y="401" type="curve" smooth="yes"></point>
      <point x="326" y="442"></point>
      <point x="326" y="483"></point>
      <point x="332" y="523" type="curve"></point>
      <point x="401" y="600"></point>
      <point x="587" y="657"></point>
      <point x="687" y="657" type="curve" smooth="yes"></point>
      <point x="878" y="657"></point>
      <point x="977" y="516"></point>
      <point x="977" y="335" type="curve" smooth="yes"></point>
      <point x="977" y="138"></point>
      <point x="860" y="-14"></point>
    </contour>
  </outline>
</glyph>
<glyph name="seven" format="1">
  <advance width="1161"></advance>
  <unicode hex="0037"></unicode>
  <outline>
    <contour>
      <point x="456" y="-176" type="line"></point>
      <point x="1028" y="1107" type="line"></point>
      <point x="971" y="1229" type="line"></point>
      <point x="135" y="1229" type="line"></point>
      <point x="135" y="1074" type="line"></point>
      <point x="813" y="1074" type="line"></point>
      <point x="288" y="-100" type="line"></point>
    </contour>
  </outline>
</glyph>
<glyph name="nine" format="1">
  <advance width="1327"/>
  <unicode hex="0039"/>
  <outline>
    <contour>
      <point x="445" y="-286" type="line"/>
      <point x="883" y="-184"/>
      <point x="1160" y="155"/>
      <point x="1160" y="608" type="curve" smooth="yes"/>
      <point x="1160" y="934"/>
      <point x="1008" y="1189"/>
      <point x="655" y="1189" type="curve" smooth="yes"/>
      <point x="360" y="1189"/>
      <point x="155" y="995"/>
      <point x="155" y="698" type="curve" smooth="yes"/>
      <point x="155" y="419"/>
      <point x="359" y="235"/>
      <point x="635" y="240" type="curve" smooth="yes"/>
      <point x="766" y="242"/>
      <point x="876" y="281"/>
      <point x="962" y="384" type="curve"/>
      <point x="910" y="104"/>
      <point x="672" y="-86"/>
      <point x="402" y="-141" type="curve"/>
    </contour>
    <contour>
      <point x="635" y="376" type="curve" smooth="yes"/>
      <point x="444" y="376"/>
      <point x="331" y="517"/>
      <point x="331" y="698" type="curve" smooth="yes"/>
      <point x="331" y="895"/>
      <point x="448" y="1050"/>
      <point x="655" y="1050" type="curve" smooth="yes"/>
      <point x="905" y="1050"/>
      <point x="982" y="849"/>
      <point x="982" y="632" type="curve" smooth="yes"/>
      <point x="982" y="591"/>
      <point x="982" y="550"/>
      <point x="976" y="510" type="curve"/>
      <point x="909" y="431"/>
      <point x="794" y="376"/>
    </contour>
  </outline>
</glyph>
<glyph name="A" format="1">
  <advance width="1427"></advance>
  <unicode hex="0041"></unicode>
  <outline>
    <contour>
      <point x="38" y="0" type="line"></point>
      <point x="230" y="0" type="line"></point>
      <point x="353" y="383" type="line"></point>
      <point x="1053" y="383" type="line"></point>
      <point x="1176" y="0" type="line"></point>
      <point x="1369" y="0" type="line"></point>
      <point x="853" y="1579" type="line"></point>
      <point x="553" y="1579" type="line"></point>
    </contour>
    <contour>
      <point x="386" y="485" type="line"></point>
      <point x="703" y="1460" type="line"></point>
      <point x="1020" y="485" type="line"></point>
    </contour>
  </outline>
</glyph>
<glyph name="C" format="1">
  <advance width="1393"/>
  <unicode hex="0043"/>
  <outline>
    <contour>
      <point x="839" y="-20" type="curve" smooth="yes"/>
      <point x="1007" y="-20"/>
      <point x="1149" y="34"/>
      <point x="1272" y="110" type="curve"/>
      <point x="1209" y="241" type="line"/>
      <point x="1109" y="181"/>
      <point x="978" y="132"/>
      <point x="847" y="132" type="curve" smooth="yes"/>
      <point x="453" y="132"/>
      <point x="349" y="452"/>
      <point x="349" y="784" type="curve" smooth="yes"/>
      <point x="349" y="1119"/>
      <point x="464" y="1447"/>
      <point x="855" y="1447" type="curve" smooth="yes"/>
      <point x="985" y="1447"/>
      <point x="1109" y="1397"/>
      <point x="1183" y="1352" type="curve"/>
      <point x="1243" y="1482" type="line"/>
      <point x="1158" y="1538"/>
      <point x="1027" y="1599"/>
      <point x="855" y="1599" type="curve" smooth="yes"/>
      <point x="359" y="1599"/>
      <point x="155" y="1252"/>
      <point x="155" y="788" type="curve" smooth="yes"/>
      <point x="155" y="348"/>
      <point x="335" y="-20"/>
    </contour>
  </outline>
</glyph>
<glyph name="E" format="1">
  <advance width="1294"/>
  <unicode hex="0045"/>
  <outline>
    <contour>
      <point x="190" y="0" type="line"/>
      <point x="1148" y="0" type="line"/>
      <point x="1148" y="143" type="line"/>
      <point x="384" y="143" type="line"/>
      <point x="384" y="776" type="line"/>
      <point x="1037" y="776" type="line"/>
      <point x="1037" y="891" type="line"/>
      <point x="384" y="891" type="line"/>
      <point x="384" y="1436" type="line"/>
      <point x="1135" y="1436" type="line"/>
      <point x="1135" y="1579" type="line"/>
      <point x="190" y="1579" type="line"/>
    </contour>
  </outline>
</glyph>
<glyph name="I" format="1">
  <advance width="1028"/>
  <unicode hex="0049"/>
  <outline>
    <contour>
      <point x="210" y="0" type="line"/>
      <point x="803" y="0" type="line"/>
      <point x="803" y="112" type="line"/>
      <point x="597" y="112" type="line"/>
      <point x="597" y="1461" type="line"/>
      <point x="803" y="1461" type="line"/>
      <point x="803" y="1579" type="line"/>
      <point x="210" y="1579" type="line"/>
      <point x="210" y="1461" type="line"/>
      <point x="414" y="1461" type="line"/>
      <point x="414" y="112" type="line"/>
      <point x="210" y="112" type="line"/>
    </contour>
  </outline>
</glyph>
<glyph name="K" format="1">
  <advance width="1289"/>
  <unicode hex="004B"/>
  <outline>
    <contour>
      <point x="150" y="0" type="line"/>
      <point x="344" y="0" type="line"/>
      <point x="344" y="747" type="line"/>
      <point x="387" y="747" type="line"/>
      <point x="1065" y="0" type="line"/>
      <point x="1298" y="0" type="line"/>
      <point x="556" y="815" type="line"/>
      <point x="1250" y="1579" type="line"/>
      <point x="1039" y="1579" type="line"/>
      <point x="377" y="876" type="line"/>
      <point x="344" y="876" type="line"/>
      <point x="344" y="1579" type="line"/>
      <point x="150" y="1579" type="line"/>
    </contour>
  </outline>
</glyph>
<glyph name="O" format="1">
  <advance width="1626"/>
  <unicode hex="004F"/>
  <outline>
    <contour>
      <point x="802" y="132" type="curve" smooth="yes"/>
      <point x="419" y="132"/>
      <point x="342" y="464"/>
      <point x="342" y="784" type="curve" smooth="yes"/>
      <point x="342" y="1101"/>
      <point x="419" y="1447"/>
      <point x="802" y="1447" type="curve" smooth="yes"/>
      <point x="1186" y="1447"/>
      <point x="1264" y="1103"/>
      <point x="1264" y="784" type="curve" smooth="yes"/>
      <point x="1264" y="464"/>
      <point x="1183" y="132"/>
    </contour>
    <contour>
      <point x="802" y="-20" type="curve" smooth="yes"/>
      <point x="1282" y="-20"/>
      <point x="1458" y="342"/>
      <point x="1458" y="784" type="curve" smooth="yes"/>
      <point x="1458" y="1236"/>
      <point x="1286" y="1599"/>
      <point x="802" y="1599" type="curve" smooth="yes"/>
      <point x="327" y="1599"/>
      <point x="148" y="1214"/>
      <point x="148" y="784" type="curve" smooth="yes"/>
      <point x="148" y="342"/>
      <point x="324" y="-20"/>
    </contour>
  </outline>
</glyph>
<glyph name="P" format="1">
  <advance width="1311"/>
  <unicode hex="0050"/>
  <outline>
    <contour>
      <point x="150" y="0" type="line"/>
      <point x="344" y="0" type="line"/>
      <point x="344" y="639" type="line"/>
      <point x="703" y="639"/>
      <point x="1247" y="612"/>
      <point x="1247" y="1108" type="curve" smooth="yes"/>
      <point x="1247" y="1536"/>
      <point x="901" y="1579"/>
      <point x="547" y="1579" type="curve" smooth="yes"/>
      <point x="150" y="1579" type="line"/>
    </contour>
    <contour>
      <point x="344" y="784" type="line"/>
      <point x="344" y="1436" type="line"/>
      <point x="559" y="1436" type="line" smooth="yes"/>
      <point x="858" y="1436"/>
      <point x="1065" y="1422"/>
      <point x="1065" y="1084" type="curve" smooth="yes"/>
      <point x="1065" y="790"/>
      <point x="735" y="784"/>
      <point x="514" y="784" type="curve" smooth="yes"/>
    </contour>
  </outline>
</glyph>
<glyph name="Q" format="1">
  <advance width="1545"/>
  <unicode hex="0051"/>
  <outline>
    <contour>
      <point x="1173" y="-424" type="line"/>
      <point x="1292" y="-293" type="line"/>
      <point x="913" y="-21" type="line"/>
      <point x="1296" y="46"/>
      <point x="1431" y="414"/>
      <point x="1431" y="784" type="curve" smooth="yes"/>
      <point x="1431" y="1230"/>
      <point x="1272" y="1610"/>
      <point x="778" y="1610" type="curve" smooth="yes"/>
      <point x="287" y="1610"/>
      <point x="114" y="1228"/>
      <point x="114" y="792" type="curve" smooth="yes"/>
      <point x="114" y="399"/>
      <point x="255" y="15"/>
      <point x="680" y="-35" type="curve"/>
    </contour>
    <contour>
      <point x="778" y="111" type="curve" smooth="yes"/>
      <point x="387" y="111"/>
      <point x="308" y="466"/>
      <point x="308" y="784" type="curve" smooth="yes"/>
      <point x="308" y="1103"/>
      <point x="385" y="1458"/>
      <point x="778" y="1458" type="curve" smooth="yes"/>
      <point x="1168" y="1458"/>
      <point x="1237" y="1101"/>
      <point x="1237" y="784" type="curve" smooth="yes"/>
      <point x="1237" y="465"/>
      <point x="1171" y="111"/>
    </contour>
  </outline>
</glyph>
<glyph name="T" format="1">
  <advance width="1136"/>
  <unicode hex="0054"/>
  <outline>
    <contour>
      <point x="474" y="0" type="line"/>
      <point x="664" y="0" type="line"/>
      <point x="664" y="1436" type="line"/>
      <point x="1122" y="1436" type="line"/>
      <point x="1122" y="1579" type="line"/>
      <point x="14" y="1579" type="line"/>
      <point x="14" y="1436" type="line"/>
      <point x="474" y="1436" type="line"/>
    </contour>
  </outline>
</glyph>
<glyph name="U" format="1">
  <advance width="1592"/>
  <unicode hex="0055"/>
  <outline>
    <contour>
      <point x="785" y="-41" type="curve" smooth="yes"/>
      <point x="1275" y="-41"/>
      <point x="1403" y="245"/>
      <point x="1403" y="701" type="curve" smooth="yes"/>
      <point x="1403" y="1579" type="line"/>
      <point x="1207" y="1579" type="line"/>
      <point x="1207" y="697" type="line" smooth="yes"/>
      <point x="1207" y="361"/>
      <point x="1176" y="100"/>
      <point x="785" y="100" type="curve" smooth="yes"/>
      <point x="396" y="100"/>
      <point x="361" y="359"/>
      <point x="361" y="697" type="curve" smooth="yes"/>
      <point x="361" y="1579" type="line"/>
      <point x="169" y="1579" type="line"/>
      <point x="169" y="701" type="line" smooth="yes"/>
      <point x="169" y="244"/>
      <point x="299" y="-41"/>
    </contour>
  </outline>
</glyph>
<glyph name="X" format="1">
  <advance width="1327"/>
  <unicode hex="0058"/>
  <outline>
    <contour>
      <point x="52" y="0" type="line"/>
      <point x="269" y="0" type="line"/>
      <point x="398" y="217"/>
      <point x="527" y="434"/>
      <point x="657" y="650" type="curve"/>
      <point x="1045" y="0" type="line"/>
      <point x="1263" y="0" type="line"/>
      <point x="766" y="800" type="line"/>
      <point x="1261" y="1579" type="line"/>
      <point x="1065" y="1579" type="line"/>
      <point x="657" y="947" type="line"/>
      <point x="249" y="1579" type="line"/>
      <point x="54" y="1579" type="line"/>
      <point x="548" y="800" type="line"/>
    </contour>
  </outline>
</glyph>
<glyph name="Z" format="1">
  <advance width="1195"/>
  <unicode hex="005A"/>
  <outline>
    <contour>
      <point x="109" y="0" type="line"/>
      <point x="1120" y="0" type="line"/>
      <point x="1120" y="143" type="line"/>
      <point x="306" y="143" type="line"/>
      <point x="1118" y="1419" type="line"/>
      <point x="1118" y="1579" type="line"/>
      <point x="109" y="1579" type="line"/>
      <point x="109" y="1447" type="line"/>
      <point x="917" y="1447" type="line"/>
      <point x="109" y="180" type="line"/>
    </contour>
  </outline>
</glyph>
<glyph name="backslash" format="1">
  <advance width="962"></advance>
  <unicode hex="005C"></unicode>
  <outline>
    <contour>
      <point x="694" y="-172" type="line"></point>
      <point x="854" y="-114" type="line"></point>
      <point x="231" y="1731" type="line"></point>
      <point x="73" y="1679" type="line"></point>
    </contour>
  </outline>
</glyph>
<glyph name="bracketright" format="1">
  <advance width="1061"></advance>
  <unicode hex="005D"></unicode>
  <outline>
    <contour>
      <point x="197" y="0" type="line"></point>
      <point x="861" y="0" type="line"></point>
      <point x="861" y="1579" type="line"></point>
      <point x="197" y="1579" type="line"></point>
      <point x="197" y="1436" type="line"></point>
      <point x="668" y="1436" type="line"></point>
      <point x="668" y="143" type="line"></point>
      <point x="197" y="143" type="line"></point>
    </contour>
  </outline>
</glyph>
<glyph name="underscore" format="1">
  <advance width="1161"></advance>
  <unicode hex="005F"></unicode>
  <outline>
    <contour>
      <point x="105" y="-111" type="line"></point>
      <point x="1045" y="-111" type="line"></point>
      <point x="1045" y="33" type="line"></point>
      <point x="105" y="33" type="line"></point>
    </contour>
  </outline>
</glyph>
<glyph name="a" format="1">
  <advance width="1197"/>
  <unicode hex="0061"/>
  <outline>
    <contour>
      <point x="494" y="-20" type="curve" smooth="yes"/>
      <point x="661" y="-20"/>
      <point x="801" y="44"/>
      <point x="899" y="178" type="curve"/>
      <point x="927" y="0" type="line"/>
      <point x="1067" y="0" type="line"/>
      <point x="1067" y="686" type="line" smooth="yes"/>
      <point x="1067" y="1043"/>
      <point x="966" y="1190"/>
      <point x="595" y="1190" type="curve" smooth="yes"/>
      <point x="438" y="1190"/>
      <point x="305" y="1150"/>
      <point x="172" y="1075" type="curve"/>
      <point x="241" y="949" type="line"/>
      <point x="341" y="1013"/>
      <point x="487" y="1047"/>
      <point x="605" y="1047" type="curve" smooth="yes"/>
      <point x="849" y="1047"/>
      <point x="877" y="925"/>
      <point x="877" y="713" type="curve" smooth="yes"/>
      <point x="877" y="661" type="line"/>
      <point x="796" y="690"/>
      <point x="652" y="715"/>
      <point x="566" y="715" type="curve" smooth="yes"/>
      <point x="304" y="715"/>
      <point x="102" y="603"/>
      <point x="102" y="343" type="curve" smooth="yes"/>
      <point x="102" y="97"/>
      <point x="255" y="-20"/>
    </contour>
    <contour>
      <point x="541" y="117" type="curve" smooth="yes"/>
      <point x="373" y="117"/>
      <point x="293" y="182"/>
      <point x="293" y="356" type="curve" smooth="yes"/>
      <point x="293" y="556"/>
      <point x="443" y="596"/>
      <point x="615" y="596" type="curve" smooth="yes"/>
      <point x="703" y="596"/>
      <point x="791" y="582"/>
      <point x="877" y="558" type="curve"/>
      <point x="877" y="271" type="line"/>
      <point x="785" y="185"/>
      <point x="670" y="117"/>
    </contour>
  </outline>
</glyph>
<glyph name="b" format="1">
  <advance width="1257"/>
  <unicode hex="0062"/>
  <outline>
    <contour>
      <point x="675" y="-20" type="curve" smooth="yes"/>
      <point x="1020" y="-20"/>
      <point x="1151" y="277"/>
      <point x="1151" y="580" type="curve" smooth="yes"/>
      <point x="1151" y="881"/>
      <point x="1027" y="1190"/>
      <point x="681" y="1190" type="curve" smooth="yes"/>
      <point x="560" y="1190"/>
      <point x="412" y="1115"/>
      <point x="327" y="1030" type="curve"/>
      <point x="327" y="1614" type="line"/>
      <point x="137" y="1579" type="line"/>
      <point x="137" y="0" type="line"/>
      <point x="277" y="0" type="line"/>
      <point x="305" y="178" type="line"/>
      <point x="397" y="70"/>
      <point x="528" y="-20"/>
    </contour>
    <contour>
      <point x="682" y="117" type="curve" smooth="yes"/>
      <point x="547" y="117"/>
      <point x="424" y="177"/>
      <point x="327" y="273" type="curve"/>
      <point x="327" y="902" type="line"/>
      <point x="411" y="982"/>
      <point x="566" y="1047"/>
      <point x="682" y="1047" type="curve" smooth="yes"/>
      <point x="932" y="1047"/>
      <point x="969" y="779"/>
      <point x="969" y="584" type="curve" smooth="yes"/>
      <point x="969" y="390"/>
      <point x="929" y="117"/>
    </contour>
  </outline>
</glyph>
<glyph name="f" format="1">
  <advance width="773"/>
  <unicode hex="0066"/>
  <outline>
    <contour>
      <point x="228" y="0" type="line"/>
      <point x="418" y="0" type="line"/>
      <point x="418" y="1064" type="line"/>
      <point x="766" y="1064" type="line"/>
      <point x="766" y="1169" type="line"/>
      <point x="418" y="1169" type="line"/>
      <point x="418" y="1332"/>
      <point x="418" y="1516"/>
      <point x="574" y="1516" type="curve" smooth="yes"/>
      <point x="633" y="1516"/>
      <point x="701" y="1493"/>
      <point x="747" y="1457" type="curve"/>
      <point x="801" y="1567" type="line"/>
      <point x="736" y="1615"/>
      <point x="640" y="1659"/>
      <point x="559" y="1659" type="curve" smooth="yes"/>
      <point x="284" y="1659"/>
      <point x="228" y="1444"/>
      <point x="228" y="1169" type="curve"/>
      <point x="33" y="1169" type="line"/>
      <point x="33" y="1064" type="line"/>
      <point x="228" y="1064" type="line"/>
    </contour>
  </outline>
</glyph>
<glyph name="g" format="1">
  <advance width="1218"/>
  <unicode hex="0067"/>
  <outline>
    <contour>
      <point x="521" y="-412" type="curve" smooth="yes"/>
      <point x="827" y="-412"/>
      <point x="1102" y="-351"/>
      <point x="1102" y="-81" type="curve" smooth="yes"/>
      <point x="1102" y="201"/>
      <point x="901" y="219"/>
      <point x="644" y="219" type="curve" smooth="yes"/>
      <point x="348" y="219" type="line"/>
      <point x="348" y="219"/>
      <point x="307" y="261"/>
      <point x="307" y="321" type="curve" smooth="yes"/>
      <point x="307" y="385"/>
      <point x="358" y="471"/>
      <point x="358" y="471" type="curve" smooth="yes"/>
      <point x="358" y="471"/>
      <point x="422" y="428"/>
      <point x="552" y="428" type="curve" smooth="yes"/>
      <point x="794" y="428"/>
      <point x="1006" y="547"/>
      <point x="1006" y="824" type="curve"/>
      <point x="1004" y="900"/>
      <point x="963" y="990"/>
      <point x="919" y="1026" type="curve"/>
      <point x="1157" y="1026" type="line"/>
      <point x="1157" y="1171" type="line"/>
      <point x="1048" y="1170"/>
      <point x="951" y="1165"/>
      <point x="852" y="1114" type="curve"/>
      <point x="773" y="1175"/>
      <point x="669" y="1190"/>
      <point x="572" y="1190" type="curve" smooth="yes"/>
      <point x="299" y="1190"/>
      <point x="119" y="1009"/>
      <point x="119" y="818" type="curve" smooth="yes"/>
      <point x="119" y="631"/>
      <point x="230" y="538"/>
      <point x="284" y="510" type="curve"/>
      <point x="181" y="418"/>
      <point x="145" y="338"/>
      <point x="145" y="274" type="curve" smooth="yes"/>
      <point x="145" y="180"/>
      <point x="224" y="122"/>
      <point x="287" y="111" type="curve"/>
      <point x="188" y="65"/>
      <point x="121" y="-17"/>
      <point x="121" y="-132" type="curve" smooth="yes"/>
      <point x="121" y="-375"/>
      <point x="319" y="-412"/>
    </contour>
    <contour>
      <point x="531" y="-278" type="curve" smooth="yes"/>
      <point x="408" y="-278"/>
      <point x="279" y="-257"/>
      <point x="279" y="-117" type="curve" smooth="yes"/>
      <point x="279" y="-42"/>
      <point x="313" y="40"/>
      <point x="376" y="80" type="curve"/>
      <point x="692" y="80" type="line" smooth="yes"/>
      <point x="829" y="80"/>
      <point x="940" y="94"/>
      <point x="940" y="-86" type="curve" smooth="yes"/>
      <point x="940" y="-259"/>
      <point x="737" y="-278"/>
    </contour>
    <contour>
      <point x="555" y="548" type="curve"/>
      <point x="383" y="548"/>
      <point x="279" y="662"/>
      <point x="279" y="817" type="curve" smooth="yes"/>
      <point x="279" y="960"/>
      <point x="374" y="1059"/>
      <point x="573" y="1059" type="curve" smooth="yes"/>
      <point x="758" y="1059"/>
      <point x="845" y="945"/>
      <point x="845" y="794" type="curve" smooth="yes"/>
      <point x="845" y="684"/>
      <point x="758" y="548"/>
    </contour>
  </outline>
</glyph>
<glyph name="h" format="1">
  <advance width="1232"/>
  <unicode hex="0068"/>
  <outline>
    <contour>
      <point x="133" y="0" type="line"/>
      <point x="323" y="0" type="line"/>
      <point x="323" y="888" type="line"/>
      <point x="409" y="979"/>
      <point x="574" y="1047"/>
      <point x="698" y="1047" type="curve" smooth="yes"/>
      <point x="892" y="1047"/>
      <point x="920" y="892"/>
      <point x="920" y="727" type="curve" smooth="yes"/>
      <point x="920" y="0" type="line"/>
      <point x="1110" y="0" type="line"/>
      <point x="1110" y="727" type="line" smooth="yes"/>
      <point x="1110" y="1018"/>
      <point x="1005" y="1190"/>
      <point x="712" y="1190" type="curve" smooth="yes"/>
      <point x="549" y="1190"/>
      <point x="429" y="1108"/>
      <point x="323" y="1011" type="curve"/>
      <point x="323" y="1616" type="line"/>
      <point x="133" y="1579" type="line"/>
    </contour>
  </outline>
</glyph>
<glyph name="j" format="1">
  <advance width="630"/>
  <unicode hex="006A"/>
  <outline>
    <contour>
      <point x="90" y="-373" type="line"/>
      <point x="328" y="-315"/>
      <point x="421" y="-68"/>
      <point x="421" y="154" type="curve" smooth="yes"/>
      <point x="421" y="1169" type="line"/>
      <point x="231" y="1169" type="line"/>
      <point x="231" y="176" type="line" smooth="yes"/>
      <point x="231" y="-14"/>
      <point x="217" y="-147"/>
      <point x="43" y="-258" type="curve"/>
    </contour>
    <contour>
      <point x="325" y="1347" type="curve" smooth="yes"/>
      <point x="390" y="1347"/>
      <point x="433" y="1400"/>
      <point x="433" y="1462" type="curve" smooth="yes"/>
      <point x="433" y="1524"/>
      <point x="390" y="1577"/>
      <point x="325" y="1577" type="curve" smooth="yes"/>
      <point x="262" y="1577"/>
      <point x="213" y="1524"/>
      <point x="213" y="1462" type="curve" smooth="yes"/>
      <point x="213" y="1399"/>
      <point x="261" y="1347"/>
    </contour>
  </outline>
</glyph>
<glyph name="m" format="1">
  <advance width="1911"/>
  <unicode hex="006D"/>
  <outline>
    <contour>
      <point x="147" y="0" type="line"/>
      <point x="333" y="0" type="line"/>
      <point x="333" y="878" type="line"/>
      <point x="421" y="966"/>
      <point x="541" y="1047"/>
      <point x="673" y="1047" type="curve" smooth="yes"/>
      <point x="845" y="1047"/>
      <point x="865" y="912"/>
      <point x="865" y="768" type="curve" smooth="yes"/>
      <point x="865" y="0" type="line"/>
      <point x="1051" y="0" type="line"/>
      <point x="1051" y="858" type="line"/>
      <point x="1146" y="957"/>
      <point x="1250" y="1047"/>
      <point x="1393" y="1047" type="curve" smooth="yes"/>
      <point x="1564" y="1047"/>
      <point x="1583" y="912"/>
      <point x="1583" y="768" type="curve" smooth="yes"/>
      <point x="1583" y="0" type="line"/>
      <point x="1769" y="0" type="line"/>
      <point x="1769" y="766" type="line" smooth="yes"/>
      <point x="1769" y="992"/>
      <point x="1670" y="1190"/>
      <point x="1421" y="1190" type="curve" smooth="yes"/>
      <point x="1258" y="1190"/>
      <point x="1113" y="1101"/>
      <point x="1021" y="967" type="curve"/>
      <point x="974" y="1112"/>
      <point x="854" y="1190"/>
      <point x="704" y="1190" type="curve" smooth="yes"/>
      <point x="544" y="1190"/>
      <point x="402" y="1112"/>
      <point x="307" y="982" type="curve"/>
      <point x="284" y="1169" type="line"/>
      <point x="147" y="1169" type="line"/>
    </contour>
  </outline>
</glyph>
<glyph name="n" format="1">
  <advance width="1239"/>
  <unicode hex="006E"/>
  <outline>
    <contour>
      <point x="133" y="0" type="line"/>
      <point x="323" y="0" type="line"/>
      <point x="323" y="880" type="line"/>
      <point x="405" y="956"/>
      <point x="592" y="1047"/>
      <point x="703" y="1047" type="curve" smooth="yes"/>
      <point x="894" y="1047"/>
      <point x="927" y="884"/>
      <point x="927" y="727" type="curve" smooth="yes"/>
      <point x="927" y="0" type="line"/>
      <point x="1117" y="0" type="line"/>
      <point x="1117" y="727" type="line" smooth="yes"/>
      <point x="1117" y="975"/>
      <point x="1029" y="1188"/>
      <point x="754" y="1188" type="curve" smooth="yes"/>
      <point x="605" y="1188"/>
      <point x="391" y="1101"/>
      <point x="297" y="982" type="curve"/>
      <point x="273" y="1169" type="line"/>
      <point x="133" y="1169" type="line"/>
    </contour>
  </outline>
</glyph>
<glyph name="o" format="1">
  <advance width="1273"/>
  <unicode hex="006F"/>
  <outline>
    <contour>
      <point x="636" y="117" type="curve" smooth="yes"/>
      <point x="366" y="117"/>
      <point x="288" y="352"/>
      <point x="288" y="582" type="curve" smooth="yes"/>
      <point x="288" y="812"/>
      <point x="365" y="1051"/>
      <point x="636" y="1051" type="curve" smooth="yes"/>
      <point x="907" y="1051"/>
      <point x="984" y="812"/>
      <point x="984" y="582" type="curve" smooth="yes"/>
      <point x="984" y="351"/>
      <point x="908" y="117"/>
    </contour>
    <contour>
      <point x="636" y="-20" type="curve" smooth="yes"/>
      <point x="995" y="-20"/>
      <point x="1167" y="248"/>
      <point x="1167" y="582" type="curve" smooth="yes"/>
      <point x="1167" y="915"/>
      <point x="996" y="1190"/>
      <point x="636" y="1190" type="curve" smooth="yes"/>
      <point x="277" y="1190"/>
      <point x="106" y="914"/>
      <point x="106" y="582" type="curve" smooth="yes"/>
      <point x="106" y="249"/>
      <point x="277" y="-20"/>
    </contour>
  </outline>
</glyph>
<glyph name="s" format="1">
  <advance width="969"/>
  <unicode hex="0073"/>
  <outline>
    <contour>
      <point x="466" y="-20" type="curve" smooth="yes"/>
      <point x="685" y="-20"/>
      <point x="893" y="74"/>
      <point x="893" y="322" type="curve" smooth="yes"/>
      <point x="893" y="530"/>
      <point x="748" y="615"/>
      <point x="578" y="675" type="curve" smooth="yes"/>
      <point x="532" y="691"/>
      <point x="484" y="705"/>
      <point x="441" y="720" type="curve" smooth="yes"/>
      <point x="328" y="760"/>
      <point x="242" y="810"/>
      <point x="242" y="892" type="curve"/>
      <point x="243" y="1027"/>
      <point x="379" y="1054"/>
      <point x="485" y="1054" type="curve" smooth="yes"/>
      <point x="597" y="1054"/>
      <point x="697" y="1012"/>
      <point x="785" y="947" type="curve"/>
      <point x="842" y="1079" type="line"/>
      <point x="758" y="1147"/>
      <point x="599" y="1190"/>
      <point x="469" y="1190" type="curve" smooth="yes"/>
      <point x="279" y="1190"/>
      <point x="81" y="1099"/>
      <point x="81" y="877" type="curve" smooth="yes"/>
      <point x="81" y="697"/>
      <point x="215" y="624"/>
      <point x="374" y="566" type="curve" smooth="yes"/>
      <point x="420" y="550"/>
      <point x="469" y="535"/>
      <point x="514" y="519" type="curve" smooth="yes"/>
      <point x="634" y="478"/>
      <point x="725" y="431"/>
      <point x="725" y="310" type="curve" smooth="yes"/>
      <point x="725" y="152"/>
      <point x="587" y="121"/>
      <point x="477" y="121" type="curve" smooth="yes"/>
      <point x="371" y="121"/>
      <point x="244" y="174"/>
      <point x="153" y="237" type="curve"/>
      <point x="98" y="99" type="line"/>
      <point x="181" y="31"/>
      <point x="359" y="-20"/>
    </contour>
  </outline>
</glyph>
<glyph name="t" format="1">
  <advance width="822"/>
  <unicode hex="0074"/>
  <outline>
    <contour>
      <point x="518" y="-14" type="curve" smooth="yes"/>
      <point x="600" y="-14"/>
      <point x="681" y="5"/>
      <point x="755" y="40" type="curve"/>
      <point x="719" y="169" type="line"/>
      <point x="667" y="144"/>
      <point x="608" y="125"/>
      <point x="550" y="125" type="curve" smooth="yes"/>
      <point x="452" y="125"/>
      <point x="409" y="206"/>
      <point x="409" y="298" type="curve" smooth="yes"/>
      <point x="409" y="1065" type="line"/>
      <point x="742" y="1065" type="line"/>
      <point x="742" y="1169" type="line"/>
      <point x="409" y="1169" type="line"/>
      <point x="409" y="1576" type="line"/>
      <point x="247" y="1530" type="line"/>
      <point x="223" y="1169" type="line"/>
      <point x="36" y="1169" type="line"/>
      <point x="36" y="1065" type="line"/>
      <point x="219" y="1065" type="line"/>
      <point x="219" y="300" type="line" smooth="yes"/>
      <point x="219" y="116"/>
      <point x="329" y="-14"/>
    </contour>
  </outline>
</glyph>
<glyph name="u" format="1">
  <advance width="1204"/>
  <unicode hex="0075"/>
  <outline>
    <contour>
      <point x="522" y="-20" type="curve"/>
      <point x="698" y="-18"/>
      <point x="833" y="86"/>
      <point x="903" y="171" type="curve"/>
      <point x="930" y="0" type="line"/>
      <point x="1071" y="0" type="line"/>
      <point x="1071" y="1169" type="line"/>
      <point x="881" y="1169" type="line"/>
      <point x="882" y="274" type="line"/>
      <point x="787" y="179"/>
      <point x="669" y="117"/>
      <point x="537" y="117" type="curve" smooth="yes"/>
      <point x="349" y="117"/>
      <point x="312" y="276"/>
      <point x="312" y="442" type="curve" smooth="yes"/>
      <point x="312" y="1169" type="line"/>
      <point x="122" y="1169" type="line"/>
      <point x="122" y="442" type="line" smooth="yes"/>
      <point x="122" y="165"/>
      <point x="240" y="-20"/>
    </contour>
  </outline>
</glyph>
<glyph name="bar" format="1">
  <advance width="730"></advance>
  <unicode hex="007C"></unicode>
  <outline>
    <contour>
      <point x="272" y="-111" type="line"></point>
      <point x="450" y="-111" type="line"></point>
      <point x="450" y="1696" type="line"></point>
      <point x="272" y="1696" type="line"></point>
    </contour>
  </outline>
</glyph>
<glyph name="braceright" format="1">
  <advance width="929"></advance>
  <unicode hex="007D"></unicode>
  <outline>
    <contour>
      <point x="101" y="-209" type="line"></point>
      <point x="767" y="-210"></point>
      <point x="288" y="572"></point>
      <point x="748" y="571" type="curve"></point>
      <point x="748" y="759" type="line"></point>
      <point x="288" y="758"></point>
      <point x="767" y="1540"></point>
      <point x="101" y="1539" type="curve"></point>
      <point x="100" y="1370" type="line"></point>
      <point x="555" y="1373"></point>
      <point x="129" y="783"></point>
      <point x="581" y="665" type="curve"></point>
      <point x="128" y="547"></point>
      <point x="556" y="-43"></point>
      <point x="100" y="-40" type="curve"></point>
    </contour>
  </outline>
</glyph>
<glyph name="cent" format="1">
  <advance width="1227"></advance>
  <unicode hex="00A2"></unicode>
  <outline>
    <contour>
      <point x="629" y="-159" type="line"></point>
      <point x="732" y="-159" type="line"></point>
      <point x="732" y="-19" type="line"></point>
      <point x="832" y="-18"></point>
      <point x="954" y="23"></point>
      <point x="1043" y="68" type="curve"></point>
      <point x="997" y="205" type="line"></point>
      <point x="919" y="158"></point>
      <point x="823" y="130"></point>
      <point x="732" y="130" type="curve"></point>
      <point x="732" y="1038" type="line"></point>
      <point x="822" y="1037"></point>
      <point x="925" y="997"></point>
      <point x="997" y="944" type="curve"></point>
      <point x="1054" y="1077" type="line"></point>
      <point x="965" y="1131"></point>
      <point x="836" y="1185"></point>
      <point x="732" y="1186" type="curve"></point>
      <point x="732" y="1329" type="line"></point>
      <point x="629" y="1329" type="line"></point>
      <point x="629" y="1189" type="line"></point>
      <point x="294" y="1156"></point>
      <point x="155" y="895"></point>
      <point x="155" y="580" type="curve" smooth="yes"></point>
      <point x="155" y="272"></point>
      <point x="295" y="-2"></point>
      <point x="629" y="-22" type="curve"></point>
    </contour>
    <contour>
      <point x="629" y="129" type="line"></point>
      <point x="399" y="153"></point>
      <point x="345" y="385"></point>
      <point x="345" y="580" type="curve" smooth="yes"></point>
      <point x="345" y="781"></point>
      <point x="395" y="1007"></point>
      <point x="629" y="1037" type="curve"></point>
    </contour>
  </outline>
</glyph>
<glyph name="sterling" format="1">
  <advance width="1161"></advance>
  <unicode hex="00A3"></unicode>
  <outline>
    <contour>
      <point x="169" y="0" type="line"></point>
      <point x="966" y="0" type="line"></point>
      <point x="966" y="132" type="line"></point>
      <point x="350" y="132" type="line"></point>
      <point x="436" y="249"></point>
      <point x="469" y="464"></point>
      <point x="469" y="603" type="curve"></point>
      <point x="897" y="603" type="line"></point>
      <point x="897" y="706" type="line"></point>
      <point x="469" y="706" type="line"></point>
      <point x="404" y="775"></point>
      <point x="353" y="862"></point>
      <point x="353" y="959" type="curve" smooth="yes"></point>
      <point x="353" y="1126"></point>
      <point x="470" y="1180"></point>
      <point x="621" y="1180" type="curve" smooth="yes"></point>
      <point x="740" y="1180"></point>
      <point x="846" y="1139"></point>
      <point x="951" y="1088" type="curve"></point>
      <point x="1001" y="1219" type="line"></point>
      <point x="883" y="1294"></point>
      <point x="697" y="1322"></point>
      <point x="562" y="1322" type="curve" smooth="yes"></point>
      <point x="358" y="1322"></point>
      <point x="171" y="1167"></point>
      <point x="171" y="956" type="curve" smooth="yes"></point>
      <point x="171" y="875"></point>
      <point x="220" y="757"></point>
      <point x="286" y="706" type="curve"></point>
      <point x="114" y="706" type="line"></point>
      <point x="114" y="603" type="line"></point>
      <point x="311" y="603" type="line"></point>
      <point x="311" y="463"></point>
      <point x="268" y="236"></point>
      <point x="169" y="126" type="curve"></point>
    </contour>
  </outline>
</glyph>
<glyph name="yen" format="1">
  <advance width="1194"></advance>
  <unicode hex="00A5"></unicode>
  <outline>
    <contour>
      <point x="504" y="0" type="line"></point>
      <point x="694" y="0" type="line"></point>
      <point x="694" y="389" type="line"></point>
      <point x="990" y="389" type="line"></point>
      <point x="990" y="488" type="line"></point>
      <point x="694" y="488" type="line"></point>
      <point x="694" y="584" type="line"></point>
      <point x="990" y="584" type="line"></point>
      <point x="990" y="688" type="line"></point>
      <point x="727" y="688" type="line"></point>
      <point x="1208" y="1579" type="line"></point>
      <point x="1014" y="1579" type="line"></point>
      <point x="594" y="788" type="line"></point>
      <point x="174" y="1579" type="line"></point>
      <point x="-16" y="1579" type="line"></point>
      <point x="463" y="688" type="line"></point>
      <point x="202" y="688" type="line"></point>
      <point x="202" y="584" type="line"></point>
      <point x="504" y="584" type="line"></point>
      <point x="504" y="488" type="line"></point>
      <point x="202" y="488" type="line"></point>
      <point x="202" y="389" type="line"></point>
      <point x="504" y="389" type="line"></point>
    </contour>
  </outline>
</glyph>
<glyph name="section" format="1">
  <advance width="924"/>
  <unicode hex="00A7"/>
  <outline>
    <contour>
      <point x="453" y="-96" type="curve" smooth="yes"/>
      <point x="654" y="-96"/>
      <point x="869" y="-16"/>
      <point x="869" y="219" type="curve" smooth="yes"/>
      <point x="869" y="386"/>
      <point x="769" y="470"/>
      <point x="618" y="522" type="curve"/>
      <point x="741" y="531"/>
      <point x="867" y="610"/>
      <point x="867" y="746" type="curve" smooth="yes"/>
      <point x="867.0" y="948.5"/>
      <point x="709.0" y="1027.5"/>
      <point x="551.0" y="1082.5" type="curve" smooth="yes"/>
      <point x="528.077350557" y="1090.47940329"/>
      <point x="505.154701114" y="1097.9536492"/>
      <point x="482.714532725" y="1105.22657867" type="curve" smooth="yes"/>
      <point x="350.480320465" y="1148.0841046"/>
      <point x="235.0" y="1183.95102637"/>
      <point x="235" y="1275" type="curve" smooth="yes"/>
      <point x="235" y="1402"/>
      <point x="365" y="1424"/>
      <point x="466" y="1424" type="curve" smooth="yes"/>
      <point x="573" y="1424"/>
      <point x="676" y="1381"/>
      <point x="760" y="1316" type="curve"/>
      <point x="818" y="1452" type="line"/>
      <point x="745" y="1516"/>
      <point x="552" y="1569"/>
      <point x="456" y="1569" type="curve" smooth="yes"/>
      <point x="283" y="1569"/>
      <point x="79" y="1487"/>
      <point x="79" y="1285" type="curve" smooth="yes"/>
      <point x="79" y="1115"/>
      <point x="187" y="1051"/>
      <point x="334" y="995" type="curve"/>
      <point x="210" y="980"/>
      <point x="79" y="913"/>
      <point x="79" y="771" type="curve" smooth="yes"/>
      <point x="79.0" y="560.0"/>
      <point x="234.25" y="495.5"/>
      <point x="389.5" y="447.5" type="curve" smooth="yes"/>
      <point x="415.183709916" y="439.559142828"/>
      <point x="440.867419831" y="432.069867257"/>
      <point x="465.84820303" y="424.443571204" type="curve" smooth="yes"/>
      <point x="591.868447496" y="385.97129092"/>
      <point x="700.0" y="344.01199396"/>
      <point x="700" y="223" type="curve" smooth="yes"/>
      <point x="700" y="82"/>
      <point x="555" y="50"/>
      <point x="441" y="50" type="curve" smooth="yes"/>
      <point x="344" y="50"/>
      <point x="223" y="93"/>
      <point x="150" y="158" type="curve"/>
      <point x="89" y="20" type="line"/>
      <point x="168" y="-45"/>
      <point x="352" y="-96"/>
    </contour>
    <contour>
      <point x="468" y="600" type="curve" smooth="yes"/>
      <point x="364" y="600"/>
      <point x="233" y="623"/>
      <point x="233" y="753" type="curve" smooth="yes"/>
      <point x="233" y="886"/>
      <point x="361" y="906"/>
      <point x="468" y="906" type="curve" smooth="yes"/>
      <point x="576" y="906"/>
      <point x="707" y="889"/>
      <point x="707" y="751" type="curve" smooth="yes"/>
      <point x="707" y="624"/>
      <point x="568" y="600"/>
    </contour>
  </outline>
</glyph>
<glyph name="dieresis" format="1">
  <advance width="995"></advance>
  <unicode hex="00A8"></unicode>
  <outline>
    <contour>
      <point x="252" y="381" type="curve" smooth="yes"></point>
      <point x="317" y="381"></point>
      <point x="360" y="434"></point>
      <point x="360" y="496" type="curve" smooth="yes"></point>
      <point x="360" y="558"></point>
      <point x="317" y="611"></point>
      <point x="252" y="611" type="curve" smooth="yes"></point>
      <point x="189" y="611"></point>
      <point x="140" y="558"></point>
      <point x="140" y="496" type="curve" smooth="yes"></point>
      <point x="140" y="433"></point>
      <point x="188" y="381"></point>
    </contour>
    <contour>
      <point x="742" y="381" type="curve" smooth="yes"></point>
      <point x="807" y="381"></point>
      <point x="850" y="434"></point>
      <point x="850" y="496" type="curve" smooth="yes"></point>
      <point x="850" y="558"></point>
      <point x="807" y="611"></point>
      <point x="742" y="611" type="curve" smooth="yes"></point>
      <point x="679" y="611"></point>
      <point x="630" y="558"></point>
      <point x="630" y="496" type="curve" smooth="yes"></point>
      <point x="630" y="433"></point>
      <point x="678" y="381"></point>
    </contour>
  </outline>
</glyph>
<glyph name="uni00AD" format="1">
  <advance width="829"></advance>
  <unicode hex="00AD"></unicode>
  <outline>
    <contour>
      <point x="174" y="508" type="line"></point>
      <point x="642" y="508" type="line"></point>
      <point x="642" y="639" type="line"></point>
      <point x="174" y="639" type="line"></point>
    </contour>
  </outline>
</glyph>
<glyph name="registered" format="1">
  <advance width="1427"></advance>
  <unicode hex="00AE"></unicode>
  <outline>
    <contour>
      <point x="858" y="785" type="line"></point>
      <point x="890" y="802"></point>
      <point x="924" y="823"></point>
      <point x="958" y="836" type="curve"></point>
      <point x="778" y="1086" type="line"></point>
      <point x="882" y="1111"></point>
      <point x="944" y="1146"></point>
      <point x="944" y="1261" type="curve" smooth="yes"></point>
      <point x="944" y="1394"></point>
      <point x="747" y="1408"></point>
      <point x="655" y="1408" type="curve" smooth="yes"></point>
      <point x="535" y="1408" type="line"></point>
      <point x="535" y="807" type="line"></point>
      <point x="641" y="807" type="line"></point>
      <point x="641" y="1068" type="line"></point>
      <point x="684" y="1068" type="line"></point>
    </contour>
    <contour>
      <point x="714" y="641" type="curve" smooth="yes"></point>
      <point x="448" y="641"></point>
      <point x="234" y="834"></point>
      <point x="234" y="1105" type="curve" smooth="yes"></point>
      <point x="234" y="1375"></point>
      <point x="448" y="1572"></point>
      <point x="714" y="1572" type="curve" smooth="yes"></point>
      <point x="979" y="1572"></point>
      <point x="1197" y="1376"></point>
      <point x="1197" y="1106" type="curve" smooth="yes"></point>
      <point x="1197" y="837"></point>
      <point x="978" y="641"></point>
    </contour>
    <contour>
      <point x="715" y="542" type="curve" smooth="yes"></point>
      <point x="1034" y="542"></point>
      <point x="1305" y="781"></point>
      <point x="1305" y="1108" type="curve" smooth="yes"></point>
      <point x="1305" y="1434"></point>
      <point x="1033" y="1674"></point>
      <point x="715" y="1674" type="curve" smooth="yes"></point>
      <point x="398" y="1674"></point>
      <point x="126" y="1433"></point>
      <point x="126" y="1108" type="curve" smooth="yes"></point>
      <point x="126" y="781"></point>
      <point x="395" y="542"></point>
    </contour>
    <contour>
      <point x="644" y="1150" type="line"></point>
      <point x="644" y="1326" type="line"></point>
      <point x="694" y="1326"></point>
      <point x="840" y="1334"></point>
      <point x="840" y="1256" type="curve" smooth="yes"></point>
      <point x="840" y="1164"></point>
      <point x="769" y="1150"></point>
      <point x="692" y="1150" type="curve" smooth="yes"></point>
    </contour>
  </outline>
</glyph>
<glyph name="macron" format="1">
  <advance width="995"></advance>
  <unicode hex="00AF"></unicode>
  <outline>
    <contour>
      <point x="147" y="98" type="line"></point>
      <point x="829" y="98" type="line"></point>
      <point x="829" y="215" type="line"></point>
      <point x="147" y="215" type="line"></point>
    </contour>
  </outline>
</glyph>
<glyph name="plusminus" format="1">
  <advance width="1028"></advance>
  <unicode hex="00B1"></unicode>
  <outline>
    <contour>
      <point x="439" y="174" type="line"></point>
      <point x="580" y="174" type="line"></point>
      <point x="580" y="518" type="line"></point>
      <point x="894" y="518" type="line"></point>
      <point x="894" y="651" type="line"></point>
      <point x="580" y="651" type="line"></point>
      <point x="580" y="995" type="line"></point>
      <point x="439" y="995" type="line"></point>
      <point x="439" y="651" type="line"></point>
      <point x="126" y="651" type="line"></point>
      <point x="126" y="518" type="line"></point>
      <point x="439" y="518" type="line"></point>
    </contour>
    <contour>
      <point x="160" y="-55" type="line"></point>
      <point x="861" y="-55" type="line"></point>
      <point x="861" y="88" type="line"></point>
      <point x="160" y="88" type="line"></point>
    </contour>
  </outline>
</glyph>
<glyph name="uni00B2" format="1">
  <advance width="929"></advance>
  <unicode hex="00B2"></unicode>
  <outline>
    <contour>
      <point x="126" y="668" type="line"></point>
      <point x="764" y="668" type="line"></point>
      <point x="764" y="820" type="line"></point>
      <point x="358" y="820" type="line"></point>
      <point x="386" y="844.136363983"></point>
      <point x="419" y="870.157243073"></point>
      <point x="454" y="898.022408489" type="curve" smooth="yes"></point>
      <point x="605" y="1017.93182816"></point>
      <point x="792" y="1171.99289834"></point>
      <point x="792" y="1357" type="curve" smooth="yes"></point>
      <point x="792" y="1551"></point>
      <point x="624" y="1638"></point>
      <point x="449" y="1638" type="curve" smooth="yes"></point>
      <point x="346" y="1638"></point>
      <point x="240" y="1625"></point>
      <point x="143" y="1588" type="curve"></point>
      <point x="143" y="1443" type="line"></point>
      <point x="235" y="1468"></point>
      <point x="335" y="1495"></point>
      <point x="431" y="1495" type="curve" smooth="yes"></point>
      <point x="521" y="1495"></point>
      <point x="620" y="1460"></point>
      <point x="620" y="1354" type="curve" smooth="yes"></point>
      <point x="620" y="1251.87187177"></point>
      <point x="488" y="1114.45387201"></point>
      <point x="358" y="999.374534859" type="curve" smooth="yes"></point>
      <point x="263" y="915.007911051"></point>
      <point x="168" y="842.647438347"></point>
      <point x="126" y="805" type="curve"></point>
    </contour>
  </outline>
</glyph>
<glyph name="uni00B3" format="1">
  <advance width="962"></advance>
  <unicode hex="00B3"></unicode>
  <outline>
    <contour>
      <point x="454" y="540" type="curve" smooth="yes"></point>
      <point x="632" y="540"></point>
      <point x="843" y="628"></point>
      <point x="843" y="835" type="curve" smooth="yes"></point>
      <point x="843" y="1006"></point>
      <point x="726" y="1111"></point>
      <point x="567" y="1142" type="curve"></point>
      <point x="701" y="1143"></point>
      <point x="812" y="1263"></point>
      <point x="812" y="1394" type="curve" smooth="yes"></point>
      <point x="812" y="1601"></point>
      <point x="616" y="1677"></point>
      <point x="439" y="1677" type="curve" smooth="yes"></point>
      <point x="347" y="1677"></point>
      <point x="236" y="1652"></point>
      <point x="153" y="1611" type="curve"></point>
      <point x="200" y="1484" type="line"></point>
      <point x="272" y="1520"></point>
      <point x="354" y="1541"></point>
      <point x="434" y="1541" type="curve" smooth="yes"></point>
      <point x="541" y="1541"></point>
      <point x="658" y="1511"></point>
      <point x="658" y="1383" type="curve" smooth="yes"></point>
      <point x="658" y="1255"></point>
      <point x="522" y="1207"></point>
      <point x="415" y="1207" type="curve"></point>
      <point x="415" y="1072" type="line"></point>
      <point x="546" y="1057"></point>
      <point x="677" y="1005"></point>
      <point x="677" y="853" type="curve" smooth="yes"></point>
      <point x="677" y="733"></point>
      <point x="565" y="672"></point>
      <point x="457" y="672" type="curve" smooth="yes"></point>
      <point x="359" y="672"></point>
      <point x="264" y="701"></point>
      <point x="177" y="745" type="curve"></point>
      <point x="126" y="618" type="line"></point>
      <point x="209" y="564"></point>
      <point x="356" y="540"></point>
    </contour>
  </outline>
</glyph>
<glyph name="periodcentered" format="1">
  <advance width="630"></advance>
  <unicode hex="00B7"></unicode>
  <outline>
    <contour>
      <point x="314" y="535" type="curve" smooth="yes"></point>
      <point x="379" y="535"></point>
      <point x="422" y="588"></point>
      <point x="422" y="650" type="curve" smooth="yes"></point>
      <point x="422" y="712"></point>
      <point x="379" y="765"></point>
      <point x="314" y="765" type="curve" smooth="yes"></point>
      <point x="251" y="765"></point>
      <point x="202" y="712"></point>
      <point x="202" y="650" type="curve" smooth="yes"></point>
      <point x="202" y="587"></point>
      <point x="250" y="535"></point>
    </contour>
  </outline>
</glyph>
<glyph name="guillemotright" format="1">
  <advance width="1327"></advance>
  <unicode hex="00BB"></unicode>
  <outline>
    <contour>
      <point x="64" y="99" type="line"></point>
      <point x="673" y="481" type="line"></point>
      <point x="673" y="666" type="line"></point>
      <point x="64" y="1049" type="line"></point>
      <point x="64" y="842" type="line"></point>
      <point x="511" y="577" type="line"></point>
      <point x="64" y="306" type="line"></point>
    </contour>
    <contour>
      <point x="671" y="99" type="line"></point>
      <point x="1280" y="481" type="line"></point>
      <point x="1280" y="666" type="line"></point>
      <point x="671" y="1049" type="line"></point>
      <point x="671" y="842" type="line"></point>
      <point x="1118" y="577" type="line"></point>
      <point x="671" y="306" type="line"></point>
    </contour>
  </outline>
</glyph>
<glyph name="onequarter" format="1">
  <advance width="1559"></advance>
  <unicode hex="00BC"></unicode>
  <outline>
    <contour>
      <point x="1216" y="-250" type="line"></point>
      <point x="1361" y="-227" type="line"></point>
      <point x="1361" y="34" type="line"></point>
      <point x="1512" y="34" type="line"></point>
      <point x="1512" y="145" type="line"></point>
      <point x="1361" y="145" type="line"></point>
      <point x="1361" y="915" type="line"></point>
      <point x="1233" y="946" type="line"></point>
      <point x="669" y="144" type="line"></point>
      <point x="691" y="34" type="line"></point>
      <point x="1216" y="34" type="line"></point>
    </contour>
    <contour>
      <point x="202" y="568" type="line"></point>
      <point x="362" y="568" type="line"></point>
      <point x="362" y="1503" type="line"></point>
      <point x="232" y="1529" type="line"></point>
      <point x="-2" y="1434" type="line"></point>
      <point x="33" y="1341" type="line"></point>
      <point x="202" y="1413" type="line"></point>
    </contour>
    <contour>
      <point x="184" y="-123" type="line"></point>
      <point x="1225" y="1272" type="line"></point>
      <point x="1103" y="1365" type="line"></point>
      <point x="64" y="-30" type="line"></point>
    </contour>
    <contour>
      <point x="828" y="144" type="line"></point>
      <point x="960" y="329"></point>
      <point x="1089" y="515"></point>
      <point x="1216" y="703" type="curve"></point>
      <point x="1216" y="144" type="line"></point>
    </contour>
  </outline>
</glyph>
<glyph name="threequarters" format="1">
  <advance width="1725"></advance>
  <unicode hex="00BE"></unicode>
  <outline>
    <contour>
      <point x="219" y="540" type="curve" smooth="yes"></point>
      <point x="397" y="540"></point>
      <point x="608" y="628"></point>
      <point x="608" y="835" type="curve" smooth="yes"></point>
      <point x="608" y="1006"></point>
      <point x="491" y="1111"></point>
      <point x="332" y="1142" type="curve"></point>
      <point x="466" y="1143"></point>
      <point x="577" y="1263"></point>
      <point x="577" y="1394" type="curve" smooth="yes"></point>
      <point x="577" y="1601"></point>
      <point x="381" y="1677"></point>
      <point x="204" y="1677" type="curve" smooth="yes"></point>
      <point x="112" y="1677"></point>
      <point x="3" y="1652"></point>
      <point x="-78" y="1611" type="curve"></point>
      <point x="-31" y="1484" type="line"></point>
      <point x="38" y="1520"></point>
      <point x="119" y="1541"></point>
      <point x="199" y="1541" type="curve" smooth="yes"></point>
      <point x="306" y="1541"></point>
      <point x="423" y="1511"></point>
      <point x="423" y="1383" type="curve" smooth="yes"></point>
      <point x="423" y="1255"></point>
      <point x="287" y="1207"></point>
      <point x="180" y="1207" type="curve"></point>
      <point x="180" y="1072" type="line"></point>
      <point x="311" y="1057"></point>
      <point x="442" y="1005"></point>
      <point x="442" y="853" type="curve" smooth="yes"></point>
      <point x="442" y="733"></point>
      <point x="330" y="672"></point>
      <point x="222" y="672" type="curve" smooth="yes"></point>
      <point x="124" y="672"></point>
      <point x="30" y="701"></point>
      <point x="-54" y="745" type="curve"></point>
      <point x="-105" y="618" type="line"></point>
      <point x="-4" y="566"></point>
      <point x="105" y="540"></point>
    </contour>
    <contour>
      <point x="1391" y="-250" type="line"></point>
      <point x="1536" y="-227" type="line"></point>
      <point x="1536" y="34" type="line"></point>
      <point x="1687" y="34" type="line"></point>
      <point x="1687" y="145" type="line"></point>
      <point x="1536" y="145" type="line"></point>
      <point x="1536" y="915" type="line"></point>
      <point x="1408" y="946" type="line"></point>
      <point x="844" y="144" type="line"></point>
      <point x="866" y="34" type="line"></point>
      <point x="1391" y="34" type="line"></point>
    </contour>
    <contour>
      <point x="359" y="-123" type="line"></point>
      <point x="1400" y="1272" type="line"></point>
      <point x="1269" y="1365" type="line"></point>
      <point x="239" y="-30" type="line"></point>
    </contour>
    <contour>
      <point x="1003" y="144" type="line"></point>
      <point x="1137" y="325"></point>
      <point x="1275" y="510"></point>
      <point x="1391" y="703" type="curve"></point>
      <point x="1391" y="144" type="line"></point>
    </contour>
  </outline>
</glyph>
<glyph name="AE" format="1">
  <advance width="1758"></advance>
  <unicode hex="00C6"></unicode>
  <outline>
    <contour>
      <point x="-43" y="0" type="line"></point>
      <point x="162" y="0" type="line"></point>
      <point x="354" y="371" type="line"></point>
      <point x="906" y="371" type="line"></point>
      <point x="906" y="0" type="line"></point>
      <point x="1745" y="0" type="line"></point>
      <point x="1745" y="143" type="line"></point>
      <point x="1071" y="143" type="line"></point>
      <point x="1071" y="764" type="line"></point>
      <point x="1674" y="764" type="line"></point>
      <point x="1674" y="891" type="line"></point>
      <point x="1069" y="891" type="line"></point>
      <point x="1069" y="1436" type="line"></point>
      <point x="1717" y="1436" type="line"></point>
      <point x="1717" y="1579" type="line"></point>
      <point x="779" y="1579" type="line"></point>
    </contour>
    <contour>
      <point x="414" y="493" type="line"></point>
      <point x="904" y="1459" type="line"></point>
      <point x="904" y="493" type="line"></point>
    </contour>
  </outline>
</glyph>
<glyph name="Oslash" format="1">
  <advance width="1626"></advance>
  <unicode hex="00D8"></unicode>
  <outline>
    <contour>
      <point x="475" y="-159" type="line"></point>
      <point x="547" y="0" type="line"></point>
      <point x="629" y="-30"></point>
      <point x="716" y="-41"></point>
      <point x="803" y="-41" type="curve" smooth="yes"></point>
      <point x="1304" y="-41"></point>
      <point x="1459" y="345"></point>
      <point x="1459" y="784" type="curve" smooth="yes"></point>
      <point x="1459" y="1024"></point>
      <point x="1413" y="1317"></point>
      <point x="1214" y="1477" type="curve"></point>
      <point x="1300" y="1668" type="line"></point>
      <point x="1199" y="1710" type="line"></point>
      <point x="1121" y="1538" type="line"></point>
      <point x="1019" y="1592"></point>
      <point x="903" y="1610"></point>
      <point x="789" y="1610" type="curve" smooth="yes"></point>
      <point x="304" y="1610"></point>
      <point x="148" y="1214"></point>
      <point x="148" y="784" type="curve" smooth="yes"></point>
      <point x="148" y="503"></point>
      <point x="198" y="215"></point>
      <point x="447" y="49" type="curve"></point>
      <point x="374" y="-113" type="line"></point>
    </contour>
    <contour>
      <point x="804" y="111" type="curve" smooth="yes"></point>
      <point x="739" y="111"></point>
      <point x="675" y="121"></point>
      <point x="615" y="147" type="curve"></point>
      <point x="613" y="147" type="line"></point>
      <point x="1137" y="1307" type="line"></point>
      <point x="1240" y="1167"></point>
      <point x="1258" y="953"></point>
      <point x="1258" y="784" type="curve" smooth="yes"></point>
      <point x="1258" y="470"></point>
      <point x="1194" y="111"></point>
    </contour>
    <contour>
      <point x="520" y="209" type="line"></point>
      <point x="371" y="348"></point>
      <point x="349" y="592"></point>
      <point x="349" y="784" type="curve" smooth="yes"></point>
      <point x="349" y="1101"></point>
      <point x="412" y="1458"></point>
      <point x="804" y="1458" type="curve" smooth="yes"></point>
      <point x="891" y="1458"></point>
      <point x="981" y="1439"></point>
      <point x="1054" y="1390" type="curve"></point>
    </contour>
  </outline>
</glyph>
<glyph name="Thorn" format="1">
  <advance width="1460"></advance>
  <unicode hex="00DE"></unicode>
  <outline>
    <contour>
      <point x="190" y="0" type="line"></point>
      <point x="384" y="0" type="line"></point>
      <point x="384" y="504" type="line"></point>
      <point x="741" y="504"></point>
      <point x="1279" y="481"></point>
      <point x="1279" y="973" type="curve" smooth="yes"></point>
      <point x="1279" y="1491"></point>
      <point x="767" y="1444"></point>
      <point x="384" y="1444" type="curve"></point>
      <point x="384" y="1579" type="line"></point>
      <point x="190" y="1579" type="line"></point>
    </contour>
    <contour>
      <point x="384" y="649" type="line"></point>
      <point x="384" y="1300" type="line"></point>
      <point x="593" y="1300" type="line" smooth="yes"></point>
      <point x="874" y="1300"></point>
      <point x="1097" y="1289"></point>
      <point x="1097" y="959" type="curve" smooth="yes"></point>
      <point x="1097" y="655"></point>
      <point x="780" y="649"></point>
      <point x="546" y="649" type="curve" smooth="yes"></point>
    </contour>
  </outline>
</glyph>
<glyph name="oslash" format="1">
  <advance width="1161"/>
  <unicode hex="00F8"/>
  <outline>
    <contour>
      <point x="349" y="-198" type="line"/>
      <point x="415" y="-2" type="line"/>
      <point x="464" y="-15"/>
      <point x="515" y="-20"/>
      <point x="565" y="-20" type="curve" smooth="yes"/>
      <point x="926" y="-20"/>
      <point x="1096" y="247"/>
      <point x="1096" y="582" type="curve" smooth="yes"/>
      <point x="1096" y="809"/>
      <point x="1017" y="1032"/>
      <point x="804" y="1140" type="curve"/>
      <point x="871" y="1335" type="line"/>
      <point x="790" y="1365" type="line"/>
      <point x="723" y="1170" type="line"/>
      <point x="672" y="1184"/>
      <point x="618" y="1190"/>
      <point x="565" y="1190" type="curve" smooth="yes"/>
      <point x="205" y="1190"/>
      <point x="35" y="914"/>
      <point x="35" y="582" type="curve" smooth="yes"/>
      <point x="35" y="357"/>
      <point x="112" y="131"/>
      <point x="328" y="28" type="curve"/>
      <point x="261" y="-168" type="line"/>
    </contour>
    <contour>
      <point x="377" y="169" type="line"/>
      <point x="246" y="259"/>
      <point x="217" y="434"/>
      <point x="217" y="582" type="curve" smooth="yes"/>
      <point x="217" y="812"/>
      <point x="294" y="1051"/>
      <point x="565" y="1051" type="curve" smooth="yes"/>
      <point x="602" y="1051"/>
      <point x="640" y="1047"/>
      <point x="676" y="1035" type="curve"/>
    </contour>
    <contour>
      <point x="565" y="117" type="curve" smooth="yes"/>
      <point x="530" y="117"/>
      <point x="494" y="120"/>
      <point x="460" y="130" type="curve"/>
      <point x="755" y="996" type="line"/>
      <point x="884" y="905"/>
      <point x="913" y="729"/>
      <point x="913" y="582" type="curve" smooth="yes"/>
      <point x="913" y="351"/>
      <point x="837" y="117"/>
    </contour>
  </outline>
</glyph>
<glyph name="dotlessi" format="1">
  <advance width="630"></advance>
  <unicode hex="0131"></unicode>
  <outline>
    <contour>
      <point x="222" y="0" type="line"></point>
      <point x="404" y="0" type="line"></point>
      <point x="404" y="1169" type="line"></point>
      <point x="222" y="1169" type="line"></point>
    </contour>
  </outline>
</glyph>
<glyph name="kgreenlandic" format="1">
  <advance width="1194"></advance>
  <unicode hex="0138"></unicode>
  <outline>
    <contour>
      <point x="140" y="0" type="line"></point>
      <point x="330" y="0" type="line"></point>
      <point x="330" y="459" type="line"></point>
      <point x="446" y="555" type="line"></point>
      <point x="926" y="0" type="line"></point>
      <point x="1147" y="0" type="line"></point>
      <point x="561" y="648" type="line"></point>
      <point x="1114" y="1169" type="line"></point>
      <point x="889" y="1169" type="line"></point>
      <point x="330" y="627" type="line"></point>
      <point x="330" y="1614" type="line"></point>
      <point x="140" y="1579" type="line"></point>
    </contour>
  </outline>
</glyph>
<glyph name="lslash" format="1">
  <advance width="630"></advance>
  <unicode hex="0142"></unicode>
  <outline>
    <contour>
      <point x="216" y="0" type="line"></point>
      <point x="406" y="0" type="line"></point>
      <point x="406" y="1614" type="line"></point>
      <point x="216" y="1579" type="line"></point>
    </contour>
  </outline>
</glyph>
<glyph name="breve" format="1">
  <advance width="862"></advance>
  <unicode hex="02D8"></unicode>
  <outline>
    <contour>
      <point x="428" y="889" type="curve" smooth="yes"></point>
      <point x="582" y="889"></point>
      <point x="694" y="1002"></point>
      <point x="694" y="1149" type="curve"></point>
      <point x="567" y="1149" type="line"></point>
      <point x="567" y="1061"></point>
      <point x="510" y="990"></point>
      <point x="426" y="990" type="curve" smooth="yes"></point>
      <point x="343" y="990"></point>
      <point x="281" y="1063"></point>
      <point x="281" y="1149" type="curve"></point>
      <point x="154" y="1149" type="line"></point>
      <point x="154" y="997"></point>
      <point x="272" y="889"></point>
    </contour>
  </outline>
</glyph>
<glyph name="dotaccent" format="1">
  <advance width="630"></advance>
  <unicode hex="02D9"></unicode>
  <outline>
    <contour>
      <point x="314" y="-17" type="curve" smooth="yes"></point>
      <point x="379" y="-17"></point>
      <point x="422" y="36"></point>
      <point x="422" y="98" type="curve" smooth="yes"></point>
      <point x="422" y="160"></point>
      <point x="379" y="213"></point>
      <point x="314" y="213" type="curve" smooth="yes"></point>
      <point x="251" y="213"></point>
      <point x="202" y="160"></point>
      <point x="202" y="98" type="curve" smooth="yes"></point>
      <point x="202" y="35"></point>
      <point x="250" y="-17"></point>
    </contour>
  </outline>
</glyph>
<glyph name="ring" format="1">
  <advance width="829"></advance>
  <unicode hex="02DA"></unicode>
  <outline>
    <contour>
      <point x="409" y="750" type="curve" smooth="yes"></point>
      <point x="328" y="750"></point>
      <point x="264" y="819"></point>
      <point x="264" y="899" type="curve" smooth="yes"></point>
      <point x="264" y="980"></point>
      <point x="326" y="1048"></point>
      <point x="409" y="1048" type="curve" smooth="yes"></point>
      <point x="493" y="1048"></point>
      <point x="550" y="981"></point>
      <point x="550" y="899" type="curve" smooth="yes"></point>
      <point x="550" y="817"></point>
      <point x="493" y="750"></point>
    </contour>
    <contour>
      <point x="411" y="660" type="curve" smooth="yes"></point>
      <point x="549" y="660"></point>
      <point x="647" y="762"></point>
      <point x="647" y="899" type="curve" smooth="yes"></point>
      <point x="647" y="1035"></point>
      <point x="548" y="1139"></point>
      <point x="411" y="1139" type="curve" smooth="yes"></point>
      <point x="272" y="1139"></point>
      <point x="167" y="1039"></point>
      <point x="167" y="899" type="curve" smooth="yes"></point>
      <point x="167" y="759"></point>
      <point x="273" y="660"></point>
    </contour>
  </outline>
</glyph>
<glyph name="hungarumlaut" format="1">
  <advance width="962"></advance>
  <unicode hex="02DD"></unicode>
  <outline>
    <contour>
      <point x="149" y="328" type="line"></point>
      <point x="563" y="759" type="line"></point>
      <point x="402" y="860" type="line"></point>
      <point x="92" y="354" type="line"></point>
    </contour>
    <contour>
      <point x="461" y="328" type="line"></point>
      <point x="875" y="759" type="line"></point>
      <point x="714" y="860" type="line"></point>
      <point x="404" y="354" type="line"></point>
    </contour>
  </outline>
</glyph>
<glyph name="uni030F" format="1">
  <advance width="929"></advance>
  <unicode hex="030F"></unicode>
  <outline>
    <contour>
      <point x="426" y="328" type="line"></point>
      <point x="483" y="354" type="line"></point>
      <point x="324" y="965" type="line"></point>
      <point x="92" y="874" type="line"></point>
    </contour>
    <contour>
      <point x="760" y="328" type="line"></point>
      <point x="817" y="354" type="line"></point>
      <point x="658" y="965" type="line"></point>
      <point x="426" y="874" type="line"></point>
    </contour>
  </outline>
</glyph>
<glyph name="uni0326" format="1">
  <advance width="696"></advance>
  <unicode hex="0326"></unicode>
  <outline>
    <contour>
      <point x="302" y="-659" type="line"></point>
      <point x="448" y="-617"></point>
      <point x="531" y="-516"></point>
      <point x="531" y="-362" type="curve" smooth="yes"></point>
      <point x="531" y="-113" type="line"></point>
      <point x="250" y="-113" type="line"></point>
      <point x="250" y="-406" type="line"></point>
      <point x="381" y="-406" type="line"></point>
      <point x="382" y="-501"></point>
      <point x="336" y="-536"></point>
      <point x="251" y="-565" type="curve"></point>
    </contour>
  </outline>
</glyph>
<glyph name="quoteleft" format="1">
  <advance width="696"></advance>
  <unicode hex="2018"></unicode>
  <outline>
    <contour>
      <point x="202" y="1033" type="line"></point>
      <point x="483" y="1033" type="line"></point>
      <point x="483" y="1326" type="line"></point>
      <point x="352" y="1326" type="line"></point>
      <point x="351" y="1421"></point>
      <point x="397" y="1456"></point>
      <point x="482" y="1485" type="curve"></point>
      <point x="431" y="1579" type="line"></point>
      <point x="285" y="1537"></point>
      <point x="202" y="1436"></point>
      <point x="202" y="1282" type="curve" smooth="yes"></point>
    </contour>
  </outline>
</glyph>
<glyph name="quoteright" format="1">
  <advance width="663"></advance>
  <unicode hex="2019"></unicode>
  <outline>
    <contour>
      <point x="240" y="1033" type="line"></point>
      <point x="386" y="1075"></point>
      <point x="469" y="1176"></point>
      <point x="469" y="1330" type="curve" smooth="yes"></point>
      <point x="469" y="1579" type="line"></point>
      <point x="188" y="1579" type="line"></point>
      <point x="188" y="1286" type="line"></point>
      <point x="319" y="1286" type="line"></point>
      <point x="320" y="1191"></point>
      <point x="274" y="1156"></point>
      <point x="189" y="1127" type="curve"></point>
    </contour>
  </outline>
</glyph>
<glyph name="quotesinglbase" format="1">
  <advance width="522"/>
  <unicode hex="201A"/>
  <outline>
    <contour>
      <point x="173" y="-253" type="line"/>
      <point x="319" y="-211"/>
      <point x="402" y="-110"/>
      <point x="402" y="44" type="curve" smooth="yes"/>
      <point x="402" y="293" type="line"/>
      <point x="121" y="293" type="line"/>
      <point x="121" y="0" type="line"/>
      <point x="252" y="0" type="line"/>
      <point x="253" y="-95"/>
      <point x="207" y="-130"/>
      <point x="122" y="-159" type="curve"/>
    </contour>
  </outline>
</glyph>
<glyph name="quotedblleft" format="1">
  <advance width="962"></advance>
  <unicode hex="201C"></unicode>
  <outline>
    <contour>
      <point x="147" y="1063" type="line"></point>
      <point x="428" y="1063" type="line"></point>
      <point x="428" y="1356" type="line"></point>
      <point x="297" y="1356" type="line"></point>
      <point x="296" y="1452"></point>
      <point x="341" y="1486"></point>
      <point x="427" y="1515" type="curve"></point>
      <point x="376" y="1609" type="line"></point>
      <point x="230" y="1567"></point>
      <point x="147" y="1466"></point>
      <point x="147" y="1312" type="curve" smooth="yes"></point>
    </contour>
    <contour>
      <point x="516" y="1063" type="line"></point>
      <point x="797" y="1063" type="line"></point>
      <point x="797" y="1356" type="line"></point>
      <point x="666" y="1356" type="line"></point>
      <point x="665" y="1452"></point>
      <point x="710" y="1486"></point>
      <point x="796" y="1515" type="curve"></point>
      <point x="745" y="1609" type="line"></point>
      <point x="599" y="1567"></point>
      <point x="516" y="1466"></point>
      <point x="516" y="1312" type="curve" smooth="yes"></point>
    </contour>
  </outline>
</glyph>
<glyph name="quotedblright" format="1">
  <advance width="891"/>
  <unicode hex="201D"/>
  <outline>
    <contour>
      <point x="173" y="1033" type="line"/>
      <point x="319" y="1075"/>
      <point x="402" y="1176"/>
      <point x="402" y="1330" type="curve" smooth="yes"/>
      <point x="402" y="1579" type="line"/>
      <point x="121" y="1579" type="line"/>
      <point x="121" y="1286" type="line"/>
      <point x="252" y="1286" type="line"/>
      <point x="253" y="1191"/>
      <point x="207" y="1156"/>
      <point x="122" y="1127" type="curve"/>
    </contour>
    <contour>
      <point x="542" y="1033" type="line"/>
      <point x="688" y="1075"/>
      <point x="771" y="1176"/>
      <point x="771" y="1330" type="curve" smooth="yes"/>
      <point x="771" y="1579" type="line"/>
      <point x="490" y="1579" type="line"/>
      <point x="490" y="1286" type="line"/>
      <point x="621" y="1286" type="line"/>
      <point x="622" y="1191"/>
      <point x="576" y="1156"/>
      <point x="491" y="1127" type="curve"/>
    </contour>
  </outline>
</glyph>
<glyph name="quotedblbase" format="1">
  <advance width="891"/>
  <unicode hex="201E"/>
  <outline>
    <contour>
      <point x="173" y="-272" type="line"/>
      <point x="319" y="-230"/>
      <point x="402" y="-129"/>
      <point x="402" y="25" type="curve" smooth="yes"/>
      <point x="402" y="274" type="line"/>
      <point x="121" y="274" type="line"/>
      <point x="121" y="-19" type="line"/>
      <point x="252" y="-19" type="line"/>
      <point x="253" y="-114"/>
      <point x="207" y="-149"/>
      <point x="122" y="-178" type="curve"/>
    </contour>
    <contour>
      <point x="542" y="-272" type="line"/>
      <point x="688" y="-230"/>
      <point x="771" y="-129"/>
      <point x="771" y="25" type="curve" smooth="yes"/>
      <point x="771" y="274" type="line"/>
      <point x="490" y="274" type="line"/>
      <point x="490" y="-19" type="line"/>
      <point x="621" y="-19" type="line"/>
      <point x="622" y="-114"/>
      <point x="576" y="-149"/>
      <point x="491" y="-178" type="curve"/>
    </contour>
  </outline>
</glyph>
<glyph name="dagger" format="1">
  <advance width="1194"></advance>
  <unicode hex="2020"></unicode>
  <outline>
    <contour>
      <point x="505" y="0" type="line"></point>
      <point x="695" y="0" type="line"></point>
      <point x="695" y="1020" type="line"></point>
      <point x="1023" y="1020" type="line"></point>
      <point x="1023" y="1161" type="line"></point>
      <point x="697" y="1161" type="line"></point>
      <point x="697" y="1468" type="line"></point>
      <point x="504" y="1468" type="line"></point>
      <point x="504" y="1161" type="line"></point>
      <point x="169" y="1161" type="line"></point>
      <point x="169" y="1020" type="line"></point>
      <point x="505" y="1020" type="line"></point>
    </contour>
  </outline>
</glyph>
<glyph name="guilsinglleft" format="1">
  <advance width="896"></advance>
  <unicode hex="2039"></unicode>
  <outline>
    <contour>
      <point x="748" y="99" type="line"></point>
      <point x="748" y="306" type="line"></point>
      <point x="301" y="577" type="line"></point>
      <point x="748" y="842" type="line"></point>
      <point x="748" y="1049" type="line"></point>
      <point x="140" y="666" type="line"></point>
      <point x="140" y="481" type="line"></point>
    </contour>
  </outline>
</glyph>
<glyph name="uni2074" format="1">
  <advance width="995"></advance>
  <unicode hex="2074"></unicode>
  <outline>
    <contour>
      <point x="639" y="442" type="line"></point>
      <point x="784" y="466" type="line"></point>
      <point x="784" y="726" type="line"></point>
      <point x="935" y="726" type="line"></point>
      <point x="935" y="838" type="line"></point>
      <point x="784" y="838" type="line"></point>
      <point x="784" y="1608" type="line"></point>
      <point x="656" y="1638" type="line"></point>
      <point x="92" y="836" type="line"></point>
      <point x="114" y="726" type="line"></point>
      <point x="639" y="726" type="line"></point>
    </contour>
    <contour>
      <point x="251" y="836" type="line"></point>
      <point x="383" y="1021"></point>
      <point x="512" y="1208"></point>
      <point x="639" y="1396" type="curve"></point>
      <point x="639" y="836" type="line"></point>
    </contour>
  </outline>
</glyph>
<glyph name="minus" format="1">
  <advance width="995"></advance>
  <unicode hex="2212"></unicode>
  <outline>
    <contour>
      <point x="147" y="508" type="line"></point>
      <point x="829" y="508" type="line"></point>
      <point x="829" y="639" type="line"></point>
      <point x="147" y="639" type="line"></point>
    </contour>
  </outline>
</glyph>
<glyph name="integral" format="1">
  <advance width="1427"></advance>
  <unicode hex="222B"></unicode>
  <outline>
    <contour>
      <point x="532" y="-524" type="curve" smooth="yes"></point>
      <point x="836" y="-524"></point>
      <point x="889" y="-286"></point>
      <point x="915" y="-34" type="curve" smooth="yes"></point>
      <point x="1041" y="1169" type="line" smooth="yes"></point>
      <point x="1058" y="1332"></point>
      <point x="1028" y="1516"></point>
      <point x="1243" y="1516" type="curve" smooth="yes"></point>
      <point x="1302" y="1516"></point>
      <point x="1352" y="1480"></point>
      <point x="1390" y="1442" type="curve"></point>
      <point x="1466" y="1567" type="line"></point>
      <point x="1406" y="1615"></point>
      <point x="1315" y="1659"></point>
      <point x="1234" y="1659" type="curve" smooth="yes"></point>
      <point x="930" y="1659"></point>
      <point x="877" y="1421"></point>
      <point x="851" y="1169" type="curve" smooth="yes"></point>
      <point x="725" y="-34" type="line" smooth="yes"></point>
      <point x="708" y="-197"></point>
      <point x="738" y="-381"></point>
      <point x="523" y="-381" type="curve" smooth="yes"></point>
      <point x="464" y="-381"></point>
      <point x="414" y="-345"></point>
      <point x="376" y="-307" type="curve"></point>
      <point x="300" y="-432" type="line"></point>
      <point x="360" y="-480"></point>
      <point x="451" y="-524"></point>
    </contour>
  </outline>
</glyph>
<glyph name="notequal" format="1">
  <advance width="896"></advance>
  <unicode hex="2260"></unicode>
  <outline>
    <contour>
      <point x="368" y="98" type="line"></point>
      <point x="437" y="280" type="line"></point>
      <point x="735" y="280" type="line"></point>
      <point x="735" y="411" type="line"></point>
      <point x="481" y="411" type="line"></point>
      <point x="514" y="508" type="line"></point>
      <point x="735" y="508" type="line"></point>
      <point x="735" y="639" type="line"></point>
      <point x="558" y="639" type="line"></point>
      <point x="608" y="788" type="line"></point>
      <point x="514" y="827" type="line"></point>
      <point x="448" y="639" type="line"></point>
      <point x="147" y="639" type="line"></point>
      <point x="147" y="508" type="line"></point>
      <point x="403" y="508" type="line"></point>
      <point x="370" y="411" type="line"></point>
      <point x="147" y="411" type="line"></point>
      <point x="147" y="280" type="line"></point>
      <point x="326" y="280" type="line"></point>
      <point x="274" y="137" type="line"></point>
    </contour>
  </outline>
</glyph>
<glyph name="lessequal" format="1">
  <advance width="995"></advance>
  <unicode hex="2264"></unicode>
  <outline>
    <contour>
      <point x="754" y="240" type="line"></point>
      <point x="836" y="350" type="line"></point>
      <point x="305" y="743" type="line"></point>
      <point x="836" y="1156" type="line"></point>
      <point x="754" y="1266" type="line"></point>
      <point x="99" y="743" type="line"></point>
    </contour>
    <contour>
      <point x="121" y="36" type="line"></point>
      <point x="878" y="36" type="line"></point>
      <point x="878" y="180" type="line"></point>
      <point x="121" y="180" type="line"></point>
    </contour>
  </outline>
</glyph>
<glyph name="uniFB02" format="1">
  <advance width="1255"/>
  <unicode hex="FB02"/>
  <outline>
    <contour>
      <point x="228" y="0" type="line"/>
      <point x="418" y="0" type="line"/>
      <point x="418" y="1064" type="line"/>
      <point x="766" y="1064" type="line"/>
      <point x="766" y="1169" type="line"/>
      <point x="418" y="1169" type="line"/>
      <point x="418" y="1448"/>
      <point x="482" y="1514"/>
      <point x="696" y="1514" type="curve" smooth="yes"/>
      <point x="757" y="1514"/>
      <point x="831" y="1508"/>
      <point x="919" y="1501" type="curve"/>
      <point x="919" y="0" type="line"/>
      <point x="1109" y="0" type="line"/>
      <point x="1109" y="1614" type="line"/>
      <point x="957" y="1638"/>
      <point x="817" y="1657"/>
      <point x="696" y="1657" type="curve" smooth="yes"/>
      <point x="411" y="1657"/>
      <point x="228" y="1553"/>
      <point x="228" y="1169" type="curve"/>
      <point x="33" y="1169" type="line"/>
      <point x="33" y="1064" type="line"/>
      <point x="228" y="1064" type="line"/>
    </contour>
  </outline>
</glyph>
<glyph name="ffi" format="1">
  <advance width="1891"></advance>
  <unicode hex="FB03"></unicode>
  <outline>
    <contour>
      <point x="153" y="0" type="line"></point>
      <point x="343" y="0" type="line"></point>
      <point x="343" y="1064" type="line"></point>
      <point x="858" y="1064" type="line"></point>
      <point x="858" y="0" type="line"></point>
      <point x="1048" y="0" type="line"></point>
      <point x="1048" y="1064" type="line"></point>
      <point x="1564" y="1064" type="line"></point>
      <point x="1564" y="0" type="line"></point>
      <point x="1746" y="0" type="line"></point>
      <point x="1746" y="1169" type="line"></point>
      <point x="1048" y="1169" type="line"></point>
      <point x="1048" y="1332"></point>
      <point x="998" y="1516"></point>
      <point x="1213" y="1516" type="curve" smooth="yes"></point>
      <point x="1272" y="1516"></point>
      <point x="1326" y="1480"></point>
      <point x="1368" y="1442" type="curve"></point>
      <point x="1431" y="1567" type="line"></point>
      <point x="1366" y="1615"></point>
      <point x="1270" y="1659"></point>
      <point x="1189" y="1659" type="curve" smooth="yes"></point>
      <point x="885" y="1659"></point>
      <point x="858" y="1421"></point>
      <point x="858" y="1169" type="curve"></point>
      <point x="343" y="1169" type="line"></point>
      <point x="343" y="1332"></point>
      <point x="293" y="1516"></point>
      <point x="508" y="1516" type="curve" smooth="yes"></point>
      <point x="567" y="1516"></point>
      <point x="621" y="1480"></point>
      <point x="663" y="1442" type="curve"></point>
      <point x="726" y="1567" type="line"></point>
      <point x="661" y="1615"></point>
      <point x="565" y="1659"></point>
      <point x="484" y="1659" type="curve" smooth="yes"></point>
      <point x="180" y="1659"></point>
      <point x="153" y="1421"></point>
      <point x="153" y="1169" type="curve"></point>
      <point x="-38" y="1169" type="line"></point>
      <point x="-38" y="1064" type="line"></point>
      <point x="153" y="1064" type="line"></point>
    </contour>
    <contour>
      <point x="1659" y="1347" type="curve" smooth="yes"></point>
      <point x="1724" y="1347"></point>
      <point x="1767" y="1400"></point>
      <point x="1767" y="1462" type="curve" smooth="yes"></point>
      <point x="1767" y="1524"></point>
      <point x="1724" y="1577"></point>
      <point x="1659" y="1577" type="curve" smooth="yes"></point>
      <point x="1596" y="1577"></point>
      <point x="1547" y="1524"></point>
      <point x="1547" y="1462" type="curve" smooth="yes"></point>
      <point x="1547" y="1399"></point>
      <point x="1595" y="1347"></point>
    </contour>
  </outline>
</glyph>
